<svg xmlns="http://www.w3.org/2000/svg" xmlns:xlink="http://www.w3.org/1999/xlink" xml:lang="en" height="143.59132812500002pt" width="246.4428916887pt" viewBox="-178.4354307512 -21.395664062499996 246.4428916887 143.59132812500002"><circle cx="-100.8" cy="50.399999999999984" r="12.6" style="stroke:#1F2937;fill:#f1e9b9;stroke-width:2;stroke-dasharray:-;" /><path d="M 0.0,-0.0 L -25.2,-3.08610993385133e-15 L -50.4,-6.17221986770266e-15" style="stroke:#172BDF;fill:none;stroke-width:1.5;stroke-dasharray:-;stroke-linecap:round;stroke-linejoin:round;" /><path d="M -50.4,-6.17221986770266e-15 L -50.4,12.599999999999994 L -44.1,12.599999999999994 L -44.1,37.79999999999999 L -56.70000000000001,37.79999999999999 L -56.699999999999996,12.599999999999993 L -50.4,12.599999999999994 M -50.40000000000001,37.79999999999999 L -50.40000000000001,50.39999999999999" style="stroke:#1F2937;fill:#f1e9b9;stroke-width:2;stroke-dasharray:-;stroke-linecap:round;stroke-linejoin:round;" /><path d="M -50.40000000000001,50.39999999999999 L -25.20000000000001,50.39999999999999 L -1.1191048088221578e-14,50.39999999999999" style="stroke:#172BDF;fill:none;stroke-width:1.5;stroke-dasharray:-;stroke-linecap:round;stroke-linejoin:round;" /><path d="M -1.1191048088221578e-14,50.39999999999999 L -1.1191048088221578e-14,60.48 L -6.300000000000011,60.48 L 6.299999999999988,60.48 M -4.410000000000011,63.50399999999999 L 4.409999999999989,63.50399999999999 M -1.2600000000000113,66.52799999999999 L 1.259999999999989,66.52799999999999" style="stroke:#1F2937;fill:none;stroke-width:2;stroke-dasharray:-;stroke-linecap:round;stroke-linejoin:round;" /><path d="M -50.40000000000001,50.39999999999999 L -50.40000000000001,63.0 L -44.10000000000001,63.0 L -44.100000000000016,88.2 L -56.700000000000024,88.2 L -56.70000000000001,62.999999999999986 L -50.40000000000001,63.0 M -50.40000000000002,88.2 L -50.40000000000002,100.8" style="stroke:#1F2937;fill:#f1e9b9;stroke-width:2;stroke-dasharray:-;stroke-linecap:round;stroke-linejoin:round;" /><path d="M -50.40000000000002,100.8 L -25.20000000000002,100.8 L -2.2382096176443155e-14,100.8" style="stroke:#172BDF;fill:none;stroke-width:1.5;stroke-dasharray:-;stroke-linecap:round;stroke-linejoin:round;" /><path d="M -50.4,-6.17221986770266e-15 L -75.6,-9.258329801553989e-15 L -100.8,-1.234443973540532e-14" style="stroke:#172BDF;fill:none;stroke-width:1.5;stroke-dasharray:-;stroke-linecap:round;stroke-linejoin:round;" /><path d="M -100.8,-1.234443973540532e-14 L -100.8,12.599999999999987 L -100.8,25.19999999999999" style="stroke:#172BDF;fill:none;stroke-width:1.5;stroke-dasharray:-;stroke-linecap:round;stroke-linejoin:round;" /><path d="M -100.8,25.19999999999999 L -100.8,37.79999999999999 L -100.8,37.79999999999999 M -100.8,62.999999999999986 L -100.8,62.999999999999986 L -100.8,75.59999999999998" style="stroke:#1F2937;fill:#f1e9b9;stroke-width:2;stroke-dasharray:-;stroke-linecap:round;stroke-linejoin:round;" /><path d="M -98.28,56.69999999999999 L -103.32000000000001,56.69999999999999" style="stroke:#1F2937;fill:none;stroke-width:2;stroke-dasharray:-;stroke-linecap:round;stroke-linejoin:round;" /><path d="M -100.8,41.579999999999984 L -100.8,46.61999999999999" style="stroke:#1F2937;fill:none;stroke-width:2;stroke-dasharray:-;stroke-linecap:round;stroke-linejoin:round;" /><path d="M -98.28,44.09999999999999 L -103.32000000000001,44.09999999999999" style="stroke:#1F2937;fill:none;stroke-width:2;stroke-dasharray:-;stroke-linecap:round;stroke-linejoin:round;" /><path d="M -100.8,75.59999999999998 L -100.8,88.2 L -100.8,100.8" style="stroke:#172BDF;fill:none;stroke-width:1.5;stroke-dasharray:-;stroke-linecap:round;stroke-linejoin:round;" /><path d="M -100.8,100.8 L -75.60000000000001,100.8 L -50.40000000000002,100.8" style="stroke:#172BDF;fill:none;stroke-width:1.5;stroke-dasharray:-;stroke-linecap:round;stroke-linejoin:round;" /><g><g><symbol id="arial_3" viewBox="0 -12.475 0 16.371" /><symbol id="arial_3" viewBox="0 -12.475 0 16.371" /><symbol id="arial_57" viewBox="0 -12.475 7.91 16.371"><path d="M 3.381 0 L 3.381 0 L 0.053 -8.59 L 1.283 -8.59 L 3.516 -2.35 Q 3.785 -1.6 3.967 -0.943 Q 4.166 -1.646 4.43 -2.35 L 6.75 -8.59 L 7.91 -8.59 L 4.547 0 Z " /></symbol><symbol id="arial_70" viewBox="0 -12.475 5.889 16.371"><path d="M 4.852 -2.279 L 4.852 -2.279 L 5.889 -2.145 Q 5.719 -1.072 5.019 -0.466 Q 4.318 0.141 3.299 0.141 Q 2.021 0.141 1.245 -0.694 Q 0.469 -1.529 0.469 -3.088 Q 0.469 -4.096 0.803 -4.852 Q 1.137 -5.607 1.819 -5.985 Q 2.502 -6.363 3.305 -6.363 Q 4.318 -6.363 4.963 -5.851 Q 5.607 -5.338 5.789 -4.395 L 4.764 -4.236 Q 4.617 -4.863 4.245 -5.18 Q 3.873 -5.496 3.346 -5.496 Q 2.549 -5.496 2.051 -4.925 Q 1.553 -4.354 1.553 -3.117 Q 1.553 -1.863 2.033 -1.295 Q 2.514 -0.727 3.287 -0.727 Q 3.908 -0.727 4.324 -1.107 Q 4.74 -1.488 4.852 -2.279 Z " /></symbol><symbol id="arial_70" viewBox="0 -12.475 5.889 16.371"><path d="M 4.852 -2.279 L 4.852 -2.279 L 5.889 -2.145 Q 5.719 -1.072 5.019 -0.466 Q 4.318 0.141 3.299 0.141 Q 2.021 0.141 1.245 -0.694 Q 0.469 -1.529 0.469 -3.088 Q 0.469 -4.096 0.803 -4.852 Q 1.137 -5.607 1.819 -5.985 Q 2.502 -6.363 3.305 -6.363 Q 4.318 -6.363 4.963 -5.851 Q 5.607 -5.338 5.789 -4.395 L 4.764 -4.236 Q 4.617 -4.863 4.245 -5.18 Q 3.873 -5.496 3.346 -5.496 Q 2.549 -5.496 2.051 -4.925 Q 1.553 -4.354 1.553 -3.117 Q 1.553 -1.863 2.033 -1.295 Q 2.514 -0.727 3.287 -0.727 Q 3.908 -0.727 4.324 -1.107 Q 4.74 -1.488 4.852 -2.279 Z " /></symbol><g transform="translate(2.52 4.225)" fill="#172BDF"><use href="#arial_3" x="0" y="-12.475" width="0" height="16.371" /><use href="#arial_3" x="3.334" y="-12.475" width="0" height="16.371" /><use href="#arial_57" x="6.668" y="-12.475" width="7.91" height="16.371" /><use href="#arial_70" x="14.672" y="-12.475" width="5.889" height="16.371" /><use href="#arial_70" x="20.672" y="-12.475" width="5.889" height="16.371" /></g></g></g><g><g><symbol id="arial_53" viewBox="0 -12.475 8.514 16.371"><path d="M 0.943 0 L 0.943 0 L 0.943 -8.59 L 4.752 -8.59 Q 5.9 -8.59 6.498 -8.358 Q 7.096 -8.127 7.453 -7.541 Q 7.811 -6.955 7.811 -6.246 Q 7.811 -5.332 7.219 -4.705 Q 6.627 -4.078 5.391 -3.908 Q 5.842 -3.691 6.076 -3.48 Q 6.574 -3.023 7.02 -2.338 L 8.514 0 L 7.084 0 L 5.947 -1.787 Q 5.449 -2.561 5.127 -2.971 Q 4.805 -3.381 4.55 -3.545 Q 4.295 -3.709 4.031 -3.773 Q 3.838 -3.814 3.398 -3.814 L 2.08 -3.814 L 2.08 0 Z M 2.08 -4.799 L 2.08 -4.799 L 4.523 -4.799 Q 5.303 -4.799 5.742 -4.96 Q 6.182 -5.121 6.41 -5.476 Q 6.639 -5.83 6.639 -6.246 Q 6.639 -6.855 6.196 -7.248 Q 5.754 -7.641 4.799 -7.641 L 2.08 -7.641 Z " /></symbol><g transform="translate(-41.58 29.495)" fill="#1F2937"><use href="#arial_53" x="0" y="-12.475" width="8.514" height="16.371" /></g></g></g><g><g><symbol id="arial_42" viewBox="0 -12.475 8.584 16.371"><path d="M 4.945 -3.369 L 4.945 -3.369 L 4.945 -4.377 L 8.584 -4.383 L 8.584 -1.195 Q 7.746 -0.527 6.855 -0.19 Q 5.965 0.146 5.027 0.146 Q 3.762 0.146 2.728 -0.396 Q 1.693 -0.938 1.166 -1.963 Q 0.639 -2.988 0.639 -4.254 Q 0.639 -5.508 1.163 -6.595 Q 1.688 -7.682 2.672 -8.209 Q 3.656 -8.736 4.939 -8.736 Q 5.871 -8.736 6.624 -8.435 Q 7.377 -8.133 7.805 -7.594 Q 8.232 -7.055 8.455 -6.188 L 7.43 -5.906 Q 7.236 -6.562 6.949 -6.938 Q 6.662 -7.312 6.129 -7.538 Q 5.596 -7.764 4.945 -7.764 Q 4.166 -7.764 3.598 -7.526 Q 3.029 -7.289 2.681 -6.902 Q 2.332 -6.516 2.139 -6.053 Q 1.811 -5.256 1.811 -4.324 Q 1.811 -3.176 2.206 -2.402 Q 2.602 -1.629 3.357 -1.254 Q 4.113 -0.879 4.963 -0.879 Q 5.701 -0.879 6.404 -1.163 Q 7.107 -1.447 7.471 -1.77 L 7.471 -3.369 Z " /></symbol><symbol id="arial_49" viewBox="0 -12.475 7.682 16.371"><path d="M 0.914 0 L 0.914 0 L 0.914 -8.59 L 2.08 -8.59 L 6.592 -1.846 L 6.592 -8.59 L 7.682 -8.59 L 7.682 0 L 6.516 0 L 2.004 -6.75 L 2.004 0 Z " /></symbol><symbol id="arial_39" viewBox="0 -12.475 8.027 16.371"><path d="M 0.926 0 L 0.926 0 L 0.926 -8.59 L 3.885 -8.59 Q 4.887 -8.59 5.414 -8.467 Q 6.152 -8.297 6.674 -7.852 Q 7.354 -7.277 7.69 -6.384 Q 8.027 -5.49 8.027 -4.342 Q 8.027 -3.363 7.799 -2.607 Q 7.57 -1.852 7.213 -1.356 Q 6.855 -0.861 6.431 -0.577 Q 6.006 -0.293 5.405 -0.146 Q 4.805 0 4.025 0 Z M 2.062 -1.014 L 2.062 -1.014 L 3.896 -1.014 Q 4.746 -1.014 5.229 -1.172 Q 5.713 -1.33 6 -1.617 Q 6.404 -2.021 6.63 -2.704 Q 6.855 -3.387 6.855 -4.359 Q 6.855 -5.707 6.413 -6.431 Q 5.971 -7.154 5.338 -7.4 Q 4.881 -7.576 3.867 -7.576 L 2.062 -7.576 Z " /></symbol><symbol id="arial_3" viewBox="0 -12.475 0 16.371" /><symbol id="arial_32" viewBox="0 -12.475 6.34 16.371"><path d="M 6.34 -5.051 L 6.34 -5.051 L 0.668 -5.051 L 0.668 -6.035 L 6.34 -6.035 Z M 6.34 -2.443 L 6.34 -2.443 L 0.668 -2.443 L 0.668 -3.428 L 6.34 -3.428 Z " /></symbol><symbol id="arial_3" viewBox="0 -12.475 0 16.371" /><symbol id="arial_19" viewBox="0 -12.475 6.1 16.371"><path d="M 0.498 -4.236 L 0.498 -4.236 Q 0.498 -5.76 0.812 -6.688 Q 1.125 -7.617 1.743 -8.121 Q 2.361 -8.625 3.299 -8.625 Q 3.99 -8.625 4.512 -8.347 Q 5.033 -8.068 5.373 -7.544 Q 5.713 -7.02 5.906 -6.267 Q 6.1 -5.514 6.1 -4.236 Q 6.1 -2.725 5.789 -1.796 Q 5.479 -0.867 4.86 -0.36 Q 4.242 0.146 3.299 0.146 Q 2.057 0.146 1.348 -0.744 Q 0.498 -1.816 0.498 -4.236 Z M 1.582 -4.236 L 1.582 -4.236 Q 1.582 -2.121 2.077 -1.421 Q 2.572 -0.721 3.299 -0.721 Q 4.025 -0.721 4.521 -1.424 Q 5.016 -2.127 5.016 -4.236 Q 5.016 -6.357 4.521 -7.055 Q 4.025 -7.752 3.287 -7.752 Q 2.561 -7.752 2.127 -7.137 Q 1.582 -6.352 1.582 -4.236 Z " /></symbol><symbol id="arial_3" viewBox="0 -12.475 0 16.371" /><symbol id="arial_57" viewBox="0 -12.475 7.91 16.371"><path d="M 3.381 0 L 3.381 0 L 0.053 -8.59 L 1.283 -8.59 L 3.516 -2.35 Q 3.785 -1.6 3.967 -0.943 Q 4.166 -1.646 4.43 -2.35 L 6.75 -8.59 L 7.91 -8.59 L 4.547 0 Z " /></symbol><g transform="translate(8.82 62.759)" fill="#1F2937"><use href="#arial_42" x="0" y="-12.475" width="8.584" height="16.371" /><use href="#arial_49" x="9.334" y="-12.475" width="7.682" height="16.371" /><use href="#arial_39" x="18" y="-12.475" width="8.027" height="16.371" /><use href="#arial_3" x="26.666" y="-12.475" width="0" height="16.371" /><use href="#arial_32" x="30" y="-12.475" width="6.34" height="16.371" /><use href="#arial_3" x="37.008" y="-12.475" width="0" height="16.371" /><use href="#arial_19" x="40.342" y="-12.475" width="6.1" height="16.371" /><use href="#arial_3" x="47.016" y="-12.475" width="0" height="16.371" /><use href="#arial_57" x="50.35" y="-12.475" width="7.91" height="16.371" /></g></g></g><g><g><symbol id="arial_53" viewBox="0 -12.475 8.514 16.371"><path d="M 0.943 0 L 0.943 0 L 0.943 -8.59 L 4.752 -8.59 Q 5.9 -8.59 6.498 -8.358 Q 7.096 -8.127 7.453 -7.541 Q 7.811 -6.955 7.811 -6.246 Q 7.811 -5.332 7.219 -4.705 Q 6.627 -4.078 5.391 -3.908 Q 5.842 -3.691 6.076 -3.48 Q 6.574 -3.023 7.02 -2.338 L 8.514 0 L 7.084 0 L 5.947 -1.787 Q 5.449 -2.561 5.127 -2.971 Q 4.805 -3.381 4.55 -3.545 Q 4.295 -3.709 4.031 -3.773 Q 3.838 -3.814 3.398 -3.814 L 2.08 -3.814 L 2.08 0 Z M 2.08 -4.799 L 2.08 -4.799 L 4.523 -4.799 Q 5.303 -4.799 5.742 -4.96 Q 6.182 -5.121 6.41 -5.476 Q 6.639 -5.83 6.639 -6.246 Q 6.639 -6.855 6.196 -7.248 Q 5.754 -7.641 4.799 -7.641 L 2.08 -7.641 Z " /></symbol><g transform="translate(-41.58 79.895)" fill="#1F2937"><use href="#arial_53" x="0" y="-12.475" width="8.514" height="16.371" /></g></g></g><g><g><symbol id="arial_3" viewBox="0 -12.475 0 16.371" /><symbol id="arial_3" viewBox="0 -12.475 0 16.371" /><symbol id="arial_16" viewBox="0 -12.475 3.621 16.371"><path d="M 0.381 -2.578 L 0.381 -2.578 L 0.381 -3.639 L 3.621 -3.639 L 3.621 -2.578 Z " /></symbol><symbol id="arial_57" viewBox="0 -12.475 7.91 16.371"><path d="M 3.381 0 L 3.381 0 L 0.053 -8.59 L 1.283 -8.59 L 3.516 -2.35 Q 3.785 -1.6 3.967 -0.943 Q 4.166 -1.646 4.43 -2.35 L 6.75 -8.59 L 7.91 -8.59 L 4.547 0 Z " /></symbol><symbol id="arial_70" viewBox="0 -12.475 5.889 16.371"><path d="M 4.852 -2.279 L 4.852 -2.279 L 5.889 -2.145 Q 5.719 -1.072 5.019 -0.466 Q 4.318 0.141 3.299 0.141 Q 2.021 0.141 1.245 -0.694 Q 0.469 -1.529 0.469 -3.088 Q 0.469 -4.096 0.803 -4.852 Q 1.137 -5.607 1.819 -5.985 Q 2.502 -6.363 3.305 -6.363 Q 4.318 -6.363 4.963 -5.851 Q 5.607 -5.338 5.789 -4.395 L 4.764 -4.236 Q 4.617 -4.863 4.245 -5.18 Q 3.873 -5.496 3.346 -5.496 Q 2.549 -5.496 2.051 -4.925 Q 1.553 -4.354 1.553 -3.117 Q 1.553 -1.863 2.033 -1.295 Q 2.514 -0.727 3.287 -0.727 Q 3.908 -0.727 4.324 -1.107 Q 4.74 -1.488 4.852 -2.279 Z " /></symbol><symbol id="arial_70" viewBox="0 -12.475 5.889 16.371"><path d="M 4.852 -2.279 L 4.852 -2.279 L 5.889 -2.145 Q 5.719 -1.072 5.019 -0.466 Q 4.318 0.141 3.299 0.141 Q 2.021 0.141 1.245 -0.694 Q 0.469 -1.529 0.469 -3.088 Q 0.469 -4.096 0.803 -4.852 Q 1.137 -5.607 1.819 -5.985 Q 2.502 -6.363 3.305 -6.363 Q 4.318 -6.363 4.963 -5.851 Q 5.607 -5.338 5.789 -4.395 L 4.764 -4.236 Q 4.617 -4.863 4.245 -5.18 Q 3.873 -5.496 3.346 -5.496 Q 2.549 -5.496 2.051 -4.925 Q 1.553 -4.354 1.553 -3.117 Q 1.553 -1.863 2.033 -1.295 Q 2.514 -0.727 3.287 -0.727 Q 3.908 -0.727 4.324 -1.107 Q 4.74 -1.488 4.852 -2.279 Z " /></symbol><g transform="translate(2.52 105.025)" fill="#172BDF"><use href="#arial_3" x="0" y="-12.475" width="0" height="16.371" /><use href="#arial_3" x="3.334" y="-12.475" width="0" height="16.371" /><use href="#arial_16" x="6.668" y="-12.475" width="3.621" height="16.371" /><use href="#arial_57" x="10.664" y="-12.475" width="7.91" height="16.371" /><use href="#arial_70" x="18.668" y="-12.475" width="5.889" height="16.371" /><use href="#arial_70" x="24.668" y="-12.475" width="5.889" height="16.371" /></g></g></g><g><g><g><symbol id="STIXTwoMathRegular_3304" viewBox="-0.156 -31.524 7.716 51.216"><path d="M 6.72 -2.232 L 6.72 -2.232 L 6.072 0 L -0.156 0 L -0.084 -0.36 Q 0.336 -0.36 0.582 -0.432 Q 0.828 -0.504 0.972 -0.714 Q 1.116 -0.924 1.2 -1.344 L 2.256 -6.42 Q 2.352 -6.876 2.322 -7.116 Q 2.292 -7.356 2.064 -7.44 Q 1.836 -7.524 1.344 -7.524 L 1.416 -7.884 L 7.56 -7.884 L 7.236 -5.916 L 6.864 -5.916 Q 6.9 -6.516 6.78 -6.84 Q 6.66 -7.164 6.294 -7.29 Q 5.928 -7.416 5.184 -7.416 L 3.516 -7.416 L 2.868 -4.296 L 4.2 -4.296 Q 4.752 -4.296 5.064 -4.392 Q 5.376 -4.488 5.532 -4.752 Q 5.688 -5.016 5.784 -5.496 L 6.168 -5.496 L 5.604 -2.712 L 5.232 -2.712 Q 5.328 -3.216 5.268 -3.456 Q 5.208 -3.696 4.932 -3.768 Q 4.656 -3.84 4.104 -3.84 L 2.784 -3.84 L 2.1 -0.468 L 3.552 -0.468 Q 4.248 -0.468 4.668 -0.54 Q 5.088 -0.612 5.352 -0.804 Q 5.616 -0.996 5.832 -1.338 Q 6.048 -1.68 6.336 -2.22 L 6.336 -2.232 Z " /></symbol><use href="#STIXTwoMathRegular_3304" x="-179.028" y="21.508" width="7.716" height="51.216" fill="#1F2937" /><symbol id="STIXTwoMathRegular_1202" viewBox="0 -31.524 7.896 51.216"><path d="M 7.896 -3.924 L 7.896 -3.924 L 0.744 -3.924 L 0.744 -4.74 L 7.896 -4.74 Z M 7.896 -1.476 L 7.896 -1.476 L 0.744 -1.476 L 0.744 -2.28 L 7.896 -2.28 Z " /></symbol><use href="#STIXTwoMathRegular_1202" x="-166.868" y="21.508" width="7.896" height="51.216" fill="#1F2937" /><symbol id="STIXTwoMathRegular_1139" viewBox="0 -31.524 5.568 51.216"><path d="M 5.568 -1.92 L 5.568 -1.92 L 5.184 0 L 0.456 0 L 0.456 -0.408 L 2.28 -2.232 Q 2.88 -2.844 3.276 -3.342 Q 3.672 -3.84 3.87 -4.344 Q 4.068 -4.848 4.068 -5.472 Q 4.068 -6.144 3.666 -6.546 Q 3.264 -6.948 2.568 -6.948 Q 1.98 -6.948 1.566 -6.696 Q 1.152 -6.444 0.816 -5.772 L 0.528 -5.892 Q 0.804 -6.768 1.404 -7.248 Q 2.004 -7.728 2.88 -7.728 Q 3.564 -7.728 4.08 -7.47 Q 4.596 -7.212 4.89 -6.75 Q 5.184 -6.288 5.184 -5.652 Q 5.184 -5.124 4.962 -4.638 Q 4.74 -4.152 4.302 -3.636 Q 3.864 -3.12 3.228 -2.472 L 1.644 -0.972 L 1.644 -0.912 L 2.484 -0.948 L 4.152 -0.948 Q 4.632 -0.948 4.824 -1.164 Q 5.016 -1.38 5.22 -1.92 Z " /></symbol><use href="#STIXTwoMathRegular_1139" x="-153.785" y="21.508" width="5.568" height="51.216" fill="#1F2937" /><symbol id="STIXTwoMathRegular_1200" viewBox="0 -31.524 7.332 51.216"><path d="M 7.332 -0.264 L 7.332 -0.264 L 6.768 0.312 L 3.924 -2.52 L 1.092 0.312 L 0.528 -0.252 L 3.348 -3.096 L 0.528 -5.928 L 1.104 -6.492 L 3.924 -3.672 L 6.768 -6.492 L 7.332 -5.94 L 4.512 -3.096 Z " /></symbol><use href="#STIXTwoMathRegular_1200" x="-146.068" y="21.508" width="7.332" height="51.216" fill="#1F2937" /><symbol id="STIXTwoMathRegular_3321" viewBox="0 -31.524 8.868 51.216"><path d="M 3.324 -1.5 L 3.324 -1.5 L 6.6 -6.42 Q 6.768 -6.66 6.87 -6.864 Q 6.972 -7.068 6.972 -7.212 Q 6.972 -7.392 6.816 -7.458 Q 6.66 -7.524 6.252 -7.524 L 6.276 -7.884 L 8.868 -7.884 L 8.844 -7.524 Q 8.52 -7.524 8.292 -7.428 Q 8.064 -7.332 7.83 -7.062 Q 7.596 -6.792 7.224 -6.24 L 2.82 0.06 L 2.424 0.06 L 1.752 -6.432 Q 1.68 -7.032 1.488 -7.278 Q 1.296 -7.524 0.816 -7.524 L 0.84 -7.884 L 3.78 -7.884 L 3.744 -7.524 Q 3.288 -7.524 3.024 -7.344 Q 2.76 -7.164 2.784 -6.756 Q 2.784 -6.696 2.802 -6.54 Q 2.82 -6.384 2.82 -6.324 L 3.18 -2.904 L 3.264 -1.5 Z " /></symbol><use href="#STIXTwoMathRegular_3321" x="-136.43" y="21.508" width="8.868" height="51.216" fill="#1F2937" /><symbol id="STIXTwoMathRegular_4397" viewBox="0 -31.524 9.216 51.216"><path d="M 7.848 -1.944 L 7.848 -1.944 L 8.136 -1.668 Q 7.716 -1.176 7.164 -0.762 Q 6.612 -0.348 5.904 -0.102 Q 5.196 0.144 4.284 0.144 Q 2.556 0.144 1.698 -0.744 Q 0.84 -1.632 0.84 -3.12 Q 0.84 -4.404 1.26 -5.424 Q 1.68 -6.444 2.418 -7.152 Q 3.156 -7.86 4.128 -8.232 Q 5.1 -8.604 6.204 -8.604 Q 6.888 -8.604 7.272 -8.49 Q 7.656 -8.376 7.866 -8.262 Q 8.076 -8.148 8.232 -8.148 Q 8.352 -8.148 8.472 -8.262 Q 8.592 -8.376 8.784 -8.592 L 9.216 -8.592 L 8.628 -5.592 L 8.112 -5.592 Q 8.136 -6.852 7.608 -7.416 Q 7.08 -7.98 6.012 -7.98 Q 5.172 -7.98 4.488 -7.632 Q 3.804 -7.284 3.306 -6.66 Q 2.808 -6.036 2.538 -5.22 Q 2.268 -4.404 2.268 -3.468 Q 2.268 -2.052 2.988 -1.446 Q 3.708 -0.84 4.932 -0.84 Q 5.808 -0.84 6.498 -1.116 Q 7.188 -1.392 7.848 -1.944 Z " /></symbol><use href="#STIXTwoMathRegular_4397" x="-128.978" y="33.485" width="6.451" height="35.851" fill="#1F2937" /><use href="#STIXTwoMathRegular_4397" x="-122.527" y="33.485" width="6.451" height="35.851" fill="#1F2937" /></g></g></g><circle cx="0.0" cy="-0.0" r="1.89" style="stroke:#1F2937;fill:#1f2937;stroke-width:2;stroke-dasharray:-;" /><circle cx="-50.40000000000002" cy="100.8" r="1.89" style="stroke:#1F2937;fill:#1f2937;stroke-width:2;stroke-dasharray:-;" /><circle cx="-2.2382096176443155e-14" cy="100.8" r="1.89" style="stroke:#1F2937;fill:#1f2937;stroke-width:2;stroke-dasharray:-;" /></svg>