<svg xmlns="http://www.w3.org/2000/svg" xmlns:xlink="http://www.w3.org/1999/xlink" xml:lang="en" height="242.84900000000002pt" width="252.30599999999998pt" viewBox="-4.6 -9.283 252.30599999999998 242.84900000000002"><circle cx="107.99999999999997" cy="162.0" r="18.0" style="stroke:black;fill:none;stroke-width:2.0;stroke-dasharray:-;" /><path d="M 0.0,-0.0 L 36.0,-0.0 L 72.0,-0.0" style="stroke:black;fill:none;stroke-width:2.0;stroke-dasharray:-;stroke-linecap:round;stroke-linejoin:round;" /><path d="M 72.0,-0.0 L 71.99999999999999,36.0 L 81.0,39.0 L 62.99999999999999,45.0 L 80.99999999999999,50.99999999999999 L 62.99999999999999,57.0 L 80.99999999999999,63.0 L 62.999999999999986,69.0 L 71.99999999999999,72.0 L 71.99999999999999,108.0" style="stroke:black;fill:none;stroke-width:2.0;stroke-dasharray:-;stroke-linecap:round;stroke-linejoin:round;" /><path d="M 71.99999999999999,108.0 L 107.99999999999999,108.0 L 143.99999999999997,108.0" style="stroke:black;fill:none;stroke-width:2.0;stroke-dasharray:-;stroke-linecap:round;stroke-linejoin:round;" /><path d="M 143.99999999999997,108.0 L 143.99999999999997,122.39999999999999 L 134.99999999999997,122.39999999999999 L 153.0,122.39999999999999 M 137.7,126.72 L 150.29999999999998,126.72 M 142.2,131.04 L 145.79999999999998,131.04" style="stroke:black;fill:none;stroke-width:2.0;stroke-dasharray:-;stroke-linecap:round;stroke-linejoin:round;" /><path d="M 143.99999999999997,108.0 L 143.99999999999997,144.0 L 152.99999999999997,147.0 L 134.99999999999997,153.0 L 152.99999999999997,158.99999999999997 L 134.99999999999997,165.0 L 152.99999999999997,171.0 L 134.99999999999997,176.99999999999997 L 143.99999999999997,180.0 L 143.99999999999997,216.0" style="stroke:black;fill:none;stroke-width:2.0;stroke-dasharray:-;stroke-linecap:round;stroke-linejoin:round;" /><path d="M 143.99999999999997,216.0 L 179.99999999999997,216.0 L 215.99999999999997,216.0" style="stroke:black;fill:none;stroke-width:2.0;stroke-dasharray:-;stroke-linecap:round;stroke-linejoin:round;" /><path d="M 215.99999999999997,216.0 L 161.99999999999997,216.0 L 107.99999999999997,216.0" style="stroke:black;fill:none;stroke-width:2.0;stroke-dasharray:-;stroke-linecap:round;stroke-linejoin:round;" /><path d="M 107.99999999999997,216.0 L 107.99999999999997,180.0 L 107.99999999999997,180.0 M 107.99999999999997,144.0 L 107.99999999999997,144.0 L 107.99999999999997,108.0" style="stroke:black;fill:none;stroke-width:2.0;stroke-dasharray:-;stroke-linecap:round;stroke-linejoin:round;" /><path d="M 111.59999999999997,171.0 L 104.39999999999996,171.0" style="stroke:black;fill:none;stroke-width:2.0;stroke-dasharray:-;stroke-linecap:round;stroke-linejoin:round;" /><path d="M 107.99999999999997,156.6 L 107.99999999999997,149.4" style="stroke:black;fill:none;stroke-width:2.0;stroke-dasharray:-;stroke-linecap:round;stroke-linejoin:round;" /><path d="M 111.59999999999997,153.0 L 104.39999999999996,153.0" style="stroke:black;fill:none;stroke-width:2.0;stroke-dasharray:-;stroke-linecap:round;stroke-linejoin:round;" /><path d="M 107.99999999999997,108.0 L 161.99999999999997,108.0 L 215.99999999999997,108.0" style="stroke:black;fill:none;stroke-width:2.0;stroke-dasharray:-;stroke-linecap:round;stroke-linejoin:round;" /><g><g><g><symbol id="STIXTwoMathRegular_3680" viewBox="0 -31.524 6.324 51.216"><path d="M 2.58 0 L 2.58 0 L 0.012 -7.884 L 1.104 -7.884 L 2.4 -3.636 Q 2.604 -2.94 2.772 -2.334 Q 2.94 -1.728 3.168 -1.032 L 3.228 -1.032 Q 3.444 -1.728 3.618 -2.334 Q 3.792 -2.94 3.996 -3.636 L 5.28 -7.884 L 6.324 -7.884 L 3.768 0 Z " /></symbol><use href="#STIXTwoMathRegular_3680" x="75.6" y="-32.263" width="7.378" height="59.752" fill="black" /><symbol id="STIXTwoMathRegular_3687" viewBox="0 -31.524 5.016 51.216"><path d="M 3.144 0.144 L 3.144 0.144 Q 2.412 0.144 1.818 -0.216 Q 1.224 -0.576 0.876 -1.242 Q 0.528 -1.908 0.528 -2.82 Q 0.528 -3.78 0.906 -4.452 Q 1.284 -5.124 1.902 -5.472 Q 2.52 -5.82 3.24 -5.82 Q 3.84 -5.82 4.23 -5.616 Q 4.62 -5.412 4.908 -5.16 L 4.416 -4.524 Q 4.164 -4.752 3.894 -4.884 Q 3.624 -5.016 3.276 -5.016 Q 2.772 -5.016 2.376 -4.74 Q 1.98 -4.464 1.752 -3.978 Q 1.524 -3.492 1.524 -2.832 Q 1.524 -1.86 2.01 -1.26 Q 2.496 -0.66 3.252 -0.66 Q 3.672 -0.66 4.002 -0.828 Q 4.332 -0.996 4.596 -1.224 L 5.016 -0.576 Q 4.632 -0.24 4.164 -0.048 Q 3.696 0.144 3.144 0.144 Z " /></symbol><use href="#STIXTwoMathRegular_3687" x="82.978" y="-32.263" width="5.852" height="59.752" fill="black" /><use href="#STIXTwoMathRegular_3687" x="89.152" y="-32.263" width="5.852" height="59.752" fill="black" /></g></g></g><g><g><g><symbol id="STIXTwoMathRegular_3676" viewBox="0 -31.524 6.684 51.216"><path d="M 1.104 0 L 1.104 0 L 1.104 -7.884 L 3.636 -7.884 Q 4.452 -7.884 5.088 -7.668 Q 5.724 -7.452 6.084 -6.972 Q 6.444 -6.492 6.444 -5.676 Q 6.444 -4.728 5.952 -4.176 Q 5.46 -3.624 4.644 -3.432 L 6.684 0 L 5.52 0 L 3.588 -3.324 L 2.136 -3.324 L 2.136 0 Z M 2.136 -4.152 L 2.136 -4.152 L 3.48 -4.152 Q 4.416 -4.152 4.92 -4.524 Q 5.424 -4.896 5.424 -5.664 Q 5.424 -6.432 4.92 -6.744 Q 4.416 -7.056 3.48 -7.056 L 2.136 -7.056 Z " /></symbol><use href="#STIXTwoMathRegular_3676" x="68.563" y="84.02" width="7.798" height="59.752" fill="black" /></g></g></g><g><g><g><symbol id="STIXTwoMathRegular_4243" viewBox="0 -31.524 5.556 51.216"><path d="M 3.048 0.144 L 3.048 0.144 Q 1.884 0.144 1.218 -0.882 Q 0.552 -1.908 0.552 -3.804 Q 0.552 -5.712 1.218 -6.702 Q 1.884 -7.692 3.048 -7.692 Q 4.224 -7.692 4.89 -6.696 Q 5.556 -5.7 5.556 -3.804 Q 5.556 -1.908 4.89 -0.882 Q 4.224 0.144 3.048 0.144 Z M 3.048 -0.672 L 3.048 -0.672 Q 3.732 -0.672 4.152 -1.41 Q 4.572 -2.148 4.572 -3.804 Q 4.572 -5.46 4.152 -6.174 Q 3.732 -6.888 3.048 -6.888 Q 2.376 -6.888 1.95 -6.174 Q 1.524 -5.46 1.524 -3.804 Q 1.524 -2.148 1.95 -1.41 Q 2.376 -0.672 3.048 -0.672 Z " /></symbol><use href="#STIXTwoMathRegular_4243" x="156.6" y="87.257" width="6.482" height="59.752" fill="black" /><symbol id="STIXTwoMathRegular_2" viewBox="0 -31.524 0 51.216" /><use href="#STIXTwoMathRegular_2" x="163.712" y="87.257" width="0" height="59.752" fill="black" /><symbol id="STIXTwoMathRegular_3680" viewBox="0 -31.524 6.324 51.216"><path d="M 2.58 0 L 2.58 0 L 0.012 -7.884 L 1.104 -7.884 L 2.4 -3.636 Q 2.604 -2.94 2.772 -2.334 Q 2.94 -1.728 3.168 -1.032 L 3.228 -1.032 Q 3.444 -1.728 3.618 -2.334 Q 3.792 -2.94 3.996 -3.636 L 5.28 -7.884 L 6.324 -7.884 L 3.768 0 Z " /></symbol><use href="#STIXTwoMathRegular_3680" x="167.002" y="87.257" width="7.378" height="59.752" fill="black" /></g></g></g><g><g><g><symbol id="STIXTwoMathRegular_3676" viewBox="0 -31.524 6.684 51.216"><path d="M 1.104 0 L 1.104 0 L 1.104 -7.884 L 3.636 -7.884 Q 4.452 -7.884 5.088 -7.668 Q 5.724 -7.452 6.084 -6.972 Q 6.444 -6.492 6.444 -5.676 Q 6.444 -4.728 5.952 -4.176 Q 5.46 -3.624 4.644 -3.432 L 6.684 0 L 5.52 0 L 3.588 -3.324 L 2.136 -3.324 L 2.136 0 Z M 2.136 -4.152 L 2.136 -4.152 L 3.48 -4.152 Q 4.416 -4.152 4.92 -4.524 Q 5.424 -4.896 5.424 -5.664 Q 5.424 -6.432 4.92 -6.744 Q 4.416 -7.056 3.48 -7.056 L 2.136 -7.056 Z " /></symbol><use href="#STIXTwoMathRegular_3676" x="140.563" y="192.02" width="7.798" height="59.752" fill="black" /></g></g></g><g><g><g><rect x="219.6" y="216.427" width="3.78" height="0.952" fill="black" /><symbol id="STIXTwoMathRegular_3680" viewBox="0 -31.524 6.324 51.216"><path d="M 2.58 0 L 2.58 0 L 0.012 -7.884 L 1.104 -7.884 L 2.4 -3.636 Q 2.604 -2.94 2.772 -2.334 Q 2.94 -1.728 3.168 -1.032 L 3.228 -1.032 Q 3.444 -1.728 3.618 -2.334 Q 3.792 -2.94 3.996 -3.636 L 5.28 -7.884 L 6.324 -7.884 L 3.768 0 Z " /></symbol><use href="#STIXTwoMathRegular_3680" x="223.38" y="183.737" width="7.378" height="59.752" fill="black" /><symbol id="STIXTwoMathRegular_3687" viewBox="0 -31.524 5.016 51.216"><path d="M 3.144 0.144 L 3.144 0.144 Q 2.412 0.144 1.818 -0.216 Q 1.224 -0.576 0.876 -1.242 Q 0.528 -1.908 0.528 -2.82 Q 0.528 -3.78 0.906 -4.452 Q 1.284 -5.124 1.902 -5.472 Q 2.52 -5.82 3.24 -5.82 Q 3.84 -5.82 4.23 -5.616 Q 4.62 -5.412 4.908 -5.16 L 4.416 -4.524 Q 4.164 -4.752 3.894 -4.884 Q 3.624 -5.016 3.276 -5.016 Q 2.772 -5.016 2.376 -4.74 Q 1.98 -4.464 1.752 -3.978 Q 1.524 -3.492 1.524 -2.832 Q 1.524 -1.86 2.01 -1.26 Q 2.496 -0.66 3.252 -0.66 Q 3.672 -0.66 4.002 -0.828 Q 4.332 -0.996 4.596 -1.224 L 5.016 -0.576 Q 4.632 -0.24 4.164 -0.048 Q 3.696 0.144 3.144 0.144 Z " /></symbol><use href="#STIXTwoMathRegular_3687" x="230.758" y="183.737" width="5.852" height="59.752" fill="black" /><use href="#STIXTwoMathRegular_3687" x="236.932" y="183.737" width="5.852" height="59.752" fill="black" /></g></g></g><g><g><g><symbol id="STIXTwoMathRegular_3663" viewBox="0 -31.524 5.868 51.216"><path d="M 1.104 0 L 1.104 0 L 1.104 -7.884 L 5.748 -7.884 L 5.748 -7.02 L 2.136 -7.02 L 2.136 -4.56 L 5.184 -4.56 L 5.184 -3.708 L 2.136 -3.708 L 2.136 -0.876 L 5.868 -0.876 L 5.868 0 Z " /></symbol><use href="#STIXTwoMathRegular_3663" x="76.801" y="192.02" width="6.846" height="59.752" fill="black" /><symbol id="STIXTwoMathRegular_2" viewBox="0 -31.524 0 51.216" /><use href="#STIXTwoMathRegular_2" x="84.347" y="192.02" width="0" height="59.752" fill="black" /><symbol id="STIXTwoMathRegular_1202" viewBox="0 -31.524 7.896 51.216"><path d="M 7.896 -3.924 L 7.896 -3.924 L 0.744 -3.924 L 0.744 -4.74 L 7.896 -4.74 Z M 7.896 -1.476 L 7.896 -1.476 L 0.744 -1.476 L 0.744 -2.28 L 7.896 -2.28 Z " /></symbol><use href="#STIXTwoMathRegular_1202" x="87.637" y="192.02" width="9.212" height="59.752" fill="black" /><use href="#STIXTwoMathRegular_2" x="97.717" y="192.02" width="0" height="59.752" fill="black" /><symbol id="STIXTwoMathRegular_4245" viewBox="0 -31.524 5.544 51.216"><path d="M 0.492 0 L 0.492 0 L 0.492 -0.6 Q 1.668 -1.728 2.484 -2.58 Q 3.3 -3.432 3.732 -4.116 Q 4.164 -4.8 4.164 -5.412 Q 4.164 -6.06 3.798 -6.468 Q 3.432 -6.876 2.688 -6.876 Q 2.196 -6.876 1.782 -6.618 Q 1.368 -6.36 1.02 -5.976 L 0.444 -6.54 Q 0.936 -7.068 1.494 -7.38 Q 2.052 -7.692 2.808 -7.692 Q 3.9 -7.692 4.53 -7.08 Q 5.16 -6.468 5.16 -5.46 Q 5.16 -4.764 4.746 -4.044 Q 4.332 -3.324 3.612 -2.526 Q 2.892 -1.728 1.968 -0.804 Q 2.28 -0.828 2.628 -0.846 Q 2.976 -0.864 3.276 -0.864 L 5.544 -0.864 L 5.544 0 Z " /></symbol><use href="#STIXTwoMathRegular_4245" x="101.007" y="192.02" width="6.468" height="59.752" fill="black" /><use href="#STIXTwoMathRegular_2" x="108.119" y="192.02" width="0" height="59.752" fill="black" /><symbol id="STIXTwoMathRegular_3710" viewBox="0 -31.524 5.028 51.216"><path d="M 0.168 0 L 0.168 0 L 2.004 -2.964 L 0.3 -5.688 L 1.332 -5.688 L 2.1 -4.44 Q 2.22 -4.212 2.364 -3.972 Q 2.508 -3.732 2.64 -3.492 L 2.688 -3.492 Q 2.82 -3.732 2.952 -3.972 Q 3.084 -4.212 3.204 -4.44 L 3.9 -5.688 L 4.884 -5.688 L 3.18 -2.868 L 5.028 0 L 3.996 0 L 3.156 -1.32 Q 3.012 -1.572 2.862 -1.836 Q 2.712 -2.1 2.544 -2.34 L 2.496 -2.34 Q 2.208 -1.86 1.932 -1.32 L 1.164 0 Z " /></symbol><use href="#STIXTwoMathRegular_3710" x="111.409" y="192.02" width="5.866" height="59.752" fill="black" /><use href="#STIXTwoMathRegular_2" x="117.471" y="192.02" width="0" height="59.752" fill="black" /><symbol id="STIXTwoMathRegular_3680" viewBox="0 -31.524 6.324 51.216"><path d="M 2.58 0 L 2.58 0 L 0.012 -7.884 L 1.104 -7.884 L 2.4 -3.636 Q 2.604 -2.94 2.772 -2.334 Q 2.94 -1.728 3.168 -1.032 L 3.228 -1.032 Q 3.444 -1.728 3.618 -2.334 Q 3.792 -2.94 3.996 -3.636 L 5.28 -7.884 L 6.324 -7.884 L 3.768 0 Z " /></symbol><use href="#STIXTwoMathRegular_3680" x="120.761" y="192.02" width="7.378" height="59.752" fill="black" /><symbol id="STIXTwoMathRegular_3687" viewBox="0 -31.524 5.016 51.216"><path d="M 3.144 0.144 L 3.144 0.144 Q 2.412 0.144 1.818 -0.216 Q 1.224 -0.576 0.876 -1.242 Q 0.528 -1.908 0.528 -2.82 Q 0.528 -3.78 0.906 -4.452 Q 1.284 -5.124 1.902 -5.472 Q 2.52 -5.82 3.24 -5.82 Q 3.84 -5.82 4.23 -5.616 Q 4.62 -5.412 4.908 -5.16 L 4.416 -4.524 Q 4.164 -4.752 3.894 -4.884 Q 3.624 -5.016 3.276 -5.016 Q 2.772 -5.016 2.376 -4.74 Q 1.98 -4.464 1.752 -3.978 Q 1.524 -3.492 1.524 -2.832 Q 1.524 -1.86 2.01 -1.26 Q 2.496 -0.66 3.252 -0.66 Q 3.672 -0.66 4.002 -0.828 Q 4.332 -0.996 4.596 -1.224 L 5.016 -0.576 Q 4.632 -0.24 4.164 -0.048 Q 3.696 0.144 3.144 0.144 Z " /></symbol><use href="#STIXTwoMathRegular_3687" x="128.139" y="192.02" width="5.852" height="59.752" fill="black" /><use href="#STIXTwoMathRegular_3687" x="134.313" y="192.02" width="5.852" height="59.752" fill="black" /></g></g></g><circle cx="71.99999999999999" cy="108.0" r="2.6999999999999997" style="stroke:black;fill:black;stroke-width:2.0;stroke-dasharray:-;" /></svg>