<svg xmlns="http://www.w3.org/2000/svg" xmlns:xlink="http://www.w3.org/1999/xlink" xml:lang="en" height="241.93085937499995pt" width="252.8pt" viewBox="-4.6 -8.965234375 252.8 241.93085937499995"><circle cx="107.99999999999997" cy="162.0" r="18.0" style="stroke:#222222;fill:#f7f9fc;stroke-width:1.6;stroke-dasharray:-;" /><path d="M 0.0,-0.0 L 36.0,-0.0 L 72.0,-0.0" style="stroke:#222222;fill:none;stroke-width:1.6;stroke-dasharray:-;stroke-linecap:round;stroke-linejoin:round;" /><path d="M 72.0,-0.0 L 71.99999999999999,36.0 L 81.0,39.0 L 62.99999999999999,45.0 L 80.99999999999999,50.99999999999999 L 62.99999999999999,57.0 L 80.99999999999999,63.0 L 62.999999999999986,69.0 L 71.99999999999999,72.0 L 71.99999999999999,108.0" style="stroke:#222222;fill:none;stroke-width:1.6;stroke-dasharray:-;stroke-linecap:round;stroke-linejoin:round;" /><path d="M 71.99999999999999,108.0 L 107.99999999999999,108.0 L 143.99999999999997,108.0" style="stroke:#222222;fill:none;stroke-width:1.6;stroke-dasharray:-;stroke-linecap:round;stroke-linejoin:round;" /><path d="M 143.99999999999997,108.0 L 143.99999999999997,122.39999999999999 L 134.99999999999997,122.39999999999999 L 153.0,122.39999999999999 M 137.7,126.72 L 150.29999999999998,126.72 M 142.2,131.04 L 145.79999999999998,131.04" style="stroke:#222222;fill:none;stroke-width:1.6;stroke-dasharray:-;stroke-linecap:round;stroke-linejoin:round;" /><path d="M 143.99999999999997,108.0 L 143.99999999999997,144.0 L 152.99999999999997,147.0 L 134.99999999999997,153.0 L 152.99999999999997,158.99999999999997 L 134.99999999999997,165.0 L 152.99999999999997,171.0 L 134.99999999999997,176.99999999999997 L 143.99999999999997,180.0 L 143.99999999999997,216.0" style="stroke:#222222;fill:none;stroke-width:1.6;stroke-dasharray:-;stroke-linecap:round;stroke-linejoin:round;" /><path d="M 143.99999999999997,216.0 L 179.99999999999997,216.0 L 215.99999999999997,216.0" style="stroke:#222222;fill:none;stroke-width:1.6;stroke-dasharray:-;stroke-linecap:round;stroke-linejoin:round;" /><path d="M 215.99999999999997,216.0 L 161.99999999999997,216.0 L 107.99999999999997,216.0" style="stroke:#222222;fill:none;stroke-width:1.6;stroke-dasharray:-;stroke-linecap:round;stroke-linejoin:round;" /><path d="M 107.99999999999997,216.0 L 107.99999999999997,180.0 L 107.99999999999997,180.0 M 107.99999999999997,144.0 L 107.99999999999997,144.0 L 107.99999999999997,108.0" style="stroke:#222222;fill:#f7f9fc;stroke-width:1.6;stroke-dasharray:-;stroke-linecap:round;stroke-linejoin:round;" /><path d="M 111.59999999999997,171.0 L 104.39999999999996,171.0" style="stroke:#222222;fill:none;stroke-width:1.6;stroke-dasharray:-;stroke-linecap:round;stroke-linejoin:round;" /><path d="M 107.99999999999997,156.6 L 107.99999999999997,149.4" style="stroke:#222222;fill:none;stroke-width:1.6;stroke-dasharray:-;stroke-linecap:round;stroke-linejoin:round;" /><path d="M 111.59999999999997,153.0 L 104.39999999999996,153.0" style="stroke:#222222;fill:none;stroke-width:1.6;stroke-dasharray:-;stroke-linecap:round;stroke-linejoin:round;" /><path d="M 107.99999999999997,108.0 L 161.99999999999997,108.0 L 215.99999999999997,108.0" style="stroke:#222222;fill:none;stroke-width:1.6;stroke-dasharray:-;stroke-linecap:round;stroke-linejoin:round;" /><g><g><symbol id="arial_57" viewBox="0 -12.475 7.91 16.371"><path d="M 3.381 0 L 3.381 0 L 0.053 -8.59 L 1.283 -8.59 L 3.516 -2.35 Q 3.785 -1.6 3.967 -0.943 Q 4.166 -1.646 4.43 -2.35 L 6.75 -8.59 L 7.91 -8.59 L 4.547 0 Z " /></symbol><symbol id="arial_70" viewBox="0 -12.475 5.889 16.371"><path d="M 4.852 -2.279 L 4.852 -2.279 L 5.889 -2.145 Q 5.719 -1.072 5.019 -0.466 Q 4.318 0.141 3.299 0.141 Q 2.021 0.141 1.245 -0.694 Q 0.469 -1.529 0.469 -3.088 Q 0.469 -4.096 0.803 -4.852 Q 1.137 -5.607 1.819 -5.985 Q 2.502 -6.363 3.305 -6.363 Q 4.318 -6.363 4.963 -5.851 Q 5.607 -5.338 5.789 -4.395 L 4.764 -4.236 Q 4.617 -4.863 4.245 -5.18 Q 3.873 -5.496 3.346 -5.496 Q 2.549 -5.496 2.051 -4.925 Q 1.553 -4.354 1.553 -3.117 Q 1.553 -1.863 2.033 -1.295 Q 2.514 -0.727 3.287 -0.727 Q 3.908 -0.727 4.324 -1.107 Q 4.74 -1.488 4.852 -2.279 Z " /></symbol><symbol id="arial_70" viewBox="0 -12.475 5.889 16.371"><path d="M 4.852 -2.279 L 4.852 -2.279 L 5.889 -2.145 Q 5.719 -1.072 5.019 -0.466 Q 4.318 0.141 3.299 0.141 Q 2.021 0.141 1.245 -0.694 Q 0.469 -1.529 0.469 -3.088 Q 0.469 -4.096 0.803 -4.852 Q 1.137 -5.607 1.819 -5.985 Q 2.502 -6.363 3.305 -6.363 Q 4.318 -6.363 4.963 -5.851 Q 5.607 -5.338 5.789 -4.395 L 4.764 -4.236 Q 4.617 -4.863 4.245 -5.18 Q 3.873 -5.496 3.346 -5.496 Q 2.549 -5.496 2.051 -4.925 Q 1.553 -4.354 1.553 -3.117 Q 1.553 -1.863 2.033 -1.295 Q 2.514 -0.727 3.287 -0.727 Q 3.908 -0.727 4.324 -1.107 Q 4.74 -1.488 4.852 -2.279 Z " /></symbol><g transform="translate(75.6 4.225)" fill="#222222"><use href="#arial_57" x="0" y="-12.475" width="7.91" height="16.371" /><use href="#arial_70" x="8.004" y="-12.475" width="5.889" height="16.371" /><use href="#arial_70" x="14.004" y="-12.475" width="5.889" height="16.371" /></g></g></g><g><g><symbol id="arial_53" viewBox="0 -12.475 8.514 16.371"><path d="M 0.943 0 L 0.943 0 L 0.943 -8.59 L 4.752 -8.59 Q 5.9 -8.59 6.498 -8.358 Q 7.096 -8.127 7.453 -7.541 Q 7.811 -6.955 7.811 -6.246 Q 7.811 -5.332 7.219 -4.705 Q 6.627 -4.078 5.391 -3.908 Q 5.842 -3.691 6.076 -3.48 Q 6.574 -3.023 7.02 -2.338 L 8.514 0 L 7.084 0 L 5.947 -1.787 Q 5.449 -2.561 5.127 -2.971 Q 4.805 -3.381 4.55 -3.545 Q 4.295 -3.709 4.031 -3.773 Q 3.838 -3.814 3.398 -3.814 L 2.08 -3.814 L 2.08 0 Z M 2.08 -4.799 L 2.08 -4.799 L 4.523 -4.799 Q 5.303 -4.799 5.742 -4.96 Q 6.182 -5.121 6.41 -5.476 Q 6.639 -5.83 6.639 -6.246 Q 6.639 -6.855 6.196 -7.248 Q 5.754 -7.641 4.799 -7.641 L 2.08 -7.641 Z " /></symbol><g transform="translate(67.667 120.19)" fill="#222222"><use href="#arial_53" x="0" y="-12.475" width="8.514" height="16.371" /></g></g></g><g><g><symbol id="arial_19" viewBox="0 -12.475 6.1 16.371"><path d="M 0.498 -4.236 L 0.498 -4.236 Q 0.498 -5.76 0.812 -6.688 Q 1.125 -7.617 1.743 -8.121 Q 2.361 -8.625 3.299 -8.625 Q 3.99 -8.625 4.512 -8.347 Q 5.033 -8.068 5.373 -7.544 Q 5.713 -7.02 5.906 -6.267 Q 6.1 -5.514 6.1 -4.236 Q 6.1 -2.725 5.789 -1.796 Q 5.479 -0.867 4.86 -0.36 Q 4.242 0.146 3.299 0.146 Q 2.057 0.146 1.348 -0.744 Q 0.498 -1.816 0.498 -4.236 Z M 1.582 -4.236 L 1.582 -4.236 Q 1.582 -2.121 2.077 -1.421 Q 2.572 -0.721 3.299 -0.721 Q 4.025 -0.721 4.521 -1.424 Q 5.016 -2.127 5.016 -4.236 Q 5.016 -6.357 4.521 -7.055 Q 4.025 -7.752 3.287 -7.752 Q 2.561 -7.752 2.127 -7.137 Q 1.582 -6.352 1.582 -4.236 Z " /></symbol><symbol id="arial_3" viewBox="0 -12.475 0 16.371" /><symbol id="arial_57" viewBox="0 -12.475 7.91 16.371"><path d="M 3.381 0 L 3.381 0 L 0.053 -8.59 L 1.283 -8.59 L 3.516 -2.35 Q 3.785 -1.6 3.967 -0.943 Q 4.166 -1.646 4.43 -2.35 L 6.75 -8.59 L 7.91 -8.59 L 4.547 0 Z " /></symbol><g transform="translate(156.6 123.759)" fill="#222222"><use href="#arial_19" x="0" y="-12.475" width="6.1" height="16.371" /><use href="#arial_3" x="6.674" y="-12.475" width="0" height="16.371" /><use href="#arial_57" x="10.008" y="-12.475" width="7.91" height="16.371" /></g></g></g><g><g><symbol id="arial_53" viewBox="0 -12.475 8.514 16.371"><path d="M 0.943 0 L 0.943 0 L 0.943 -8.59 L 4.752 -8.59 Q 5.9 -8.59 6.498 -8.358 Q 7.096 -8.127 7.453 -7.541 Q 7.811 -6.955 7.811 -6.246 Q 7.811 -5.332 7.219 -4.705 Q 6.627 -4.078 5.391 -3.908 Q 5.842 -3.691 6.076 -3.48 Q 6.574 -3.023 7.02 -2.338 L 8.514 0 L 7.084 0 L 5.947 -1.787 Q 5.449 -2.561 5.127 -2.971 Q 4.805 -3.381 4.55 -3.545 Q 4.295 -3.709 4.031 -3.773 Q 3.838 -3.814 3.398 -3.814 L 2.08 -3.814 L 2.08 0 Z M 2.08 -4.799 L 2.08 -4.799 L 4.523 -4.799 Q 5.303 -4.799 5.742 -4.96 Q 6.182 -5.121 6.41 -5.476 Q 6.639 -5.83 6.639 -6.246 Q 6.639 -6.855 6.196 -7.248 Q 5.754 -7.641 4.799 -7.641 L 2.08 -7.641 Z " /></symbol><g transform="translate(139.667 228.19)" fill="#222222"><use href="#arial_53" x="0" y="-12.475" width="8.514" height="16.371" /></g></g></g><g><g><symbol id="arial_16" viewBox="0 -12.475 3.621 16.371"><path d="M 0.381 -2.578 L 0.381 -2.578 L 0.381 -3.639 L 3.621 -3.639 L 3.621 -2.578 Z " /></symbol><symbol id="arial_57" viewBox="0 -12.475 7.91 16.371"><path d="M 3.381 0 L 3.381 0 L 0.053 -8.59 L 1.283 -8.59 L 3.516 -2.35 Q 3.785 -1.6 3.967 -0.943 Q 4.166 -1.646 4.43 -2.35 L 6.75 -8.59 L 7.91 -8.59 L 4.547 0 Z " /></symbol><symbol id="arial_70" viewBox="0 -12.475 5.889 16.371"><path d="M 4.852 -2.279 L 4.852 -2.279 L 5.889 -2.145 Q 5.719 -1.072 5.019 -0.466 Q 4.318 0.141 3.299 0.141 Q 2.021 0.141 1.245 -0.694 Q 0.469 -1.529 0.469 -3.088 Q 0.469 -4.096 0.803 -4.852 Q 1.137 -5.607 1.819 -5.985 Q 2.502 -6.363 3.305 -6.363 Q 4.318 -6.363 4.963 -5.851 Q 5.607 -5.338 5.789 -4.395 L 4.764 -4.236 Q 4.617 -4.863 4.245 -5.18 Q 3.873 -5.496 3.346 -5.496 Q 2.549 -5.496 2.051 -4.925 Q 1.553 -4.354 1.553 -3.117 Q 1.553 -1.863 2.033 -1.295 Q 2.514 -0.727 3.287 -0.727 Q 3.908 -0.727 4.324 -1.107 Q 4.74 -1.488 4.852 -2.279 Z " /></symbol><symbol id="arial_70" viewBox="0 -12.475 5.889 16.371"><path d="M 4.852 -2.279 L 4.852 -2.279 L 5.889 -2.145 Q 5.719 -1.072 5.019 -0.466 Q 4.318 0.141 3.299 0.141 Q 2.021 0.141 1.245 -0.694 Q 0.469 -1.529 0.469 -3.088 Q 0.469 -4.096 0.803 -4.852 Q 1.137 -5.607 1.819 -5.985 Q 2.502 -6.363 3.305 -6.363 Q 4.318 -6.363 4.963 -5.851 Q 5.607 -5.338 5.789 -4.395 L 4.764 -4.236 Q 4.617 -4.863 4.245 -5.18 Q 3.873 -5.496 3.346 -5.496 Q 2.549 -5.496 2.051 -4.925 Q 1.553 -4.354 1.553 -3.117 Q 1.553 -1.863 2.033 -1.295 Q 2.514 -0.727 3.287 -0.727 Q 3.908 -0.727 4.324 -1.107 Q 4.74 -1.488 4.852 -2.279 Z " /></symbol><g transform="translate(219.6 220.225)" fill="#222222"><use href="#arial_16" x="0" y="-12.475" width="3.621" height="16.371" /><use href="#arial_57" x="3.996" y="-12.475" width="7.91" height="16.371" /><use href="#arial_70" x="12" y="-12.475" width="5.889" height="16.371" /><use href="#arial_70" x="18" y="-12.475" width="5.889" height="16.371" /></g></g></g><g><g><symbol id="arial_40" viewBox="0 -12.475 7.359 16.371"><path d="M 0.949 0 L 0.949 0 L 0.949 -8.59 L 7.16 -8.59 L 7.16 -7.576 L 2.086 -7.576 L 2.086 -4.945 L 6.838 -4.945 L 6.838 -3.938 L 2.086 -3.938 L 2.086 -1.014 L 7.359 -1.014 L 7.359 0 Z " /></symbol><symbol id="arial_3" viewBox="0 -12.475 0 16.371" /><symbol id="arial_32" viewBox="0 -12.475 6.34 16.371"><path d="M 6.34 -5.051 L 6.34 -5.051 L 0.668 -5.051 L 0.668 -6.035 L 6.34 -6.035 Z M 6.34 -2.443 L 6.34 -2.443 L 0.668 -2.443 L 0.668 -3.428 L 6.34 -3.428 Z " /></symbol><symbol id="arial_3" viewBox="0 -12.475 0 16.371" /><symbol id="arial_21" viewBox="0 -12.475 6.041 16.371"><path d="M 6.041 -1.014 L 6.041 -1.014 L 6.041 0 L 0.363 0 Q 0.352 -0.381 0.486 -0.732 Q 0.703 -1.312 1.181 -1.875 Q 1.658 -2.438 2.561 -3.176 Q 3.961 -4.324 4.453 -4.995 Q 4.945 -5.666 4.945 -6.264 Q 4.945 -6.891 4.497 -7.321 Q 4.049 -7.752 3.328 -7.752 Q 2.566 -7.752 2.109 -7.295 Q 1.652 -6.838 1.646 -6.029 L 0.562 -6.141 Q 0.674 -7.354 1.4 -7.989 Q 2.127 -8.625 3.352 -8.625 Q 4.588 -8.625 5.309 -7.939 Q 6.029 -7.254 6.029 -6.24 Q 6.029 -5.725 5.818 -5.227 Q 5.607 -4.729 5.118 -4.178 Q 4.629 -3.627 3.492 -2.666 Q 2.543 -1.869 2.273 -1.585 Q 2.004 -1.301 1.828 -1.014 Z " /></symbol><symbol id="arial_3" viewBox="0 -12.475 0 16.371" /><symbol id="arial_91" viewBox="0 -12.475 5.912 16.371"><path d="M 0.088 0 L 0.088 0 L 2.361 -3.234 L 0.258 -6.223 L 1.576 -6.223 L 2.531 -4.764 Q 2.801 -4.348 2.965 -4.066 Q 3.223 -4.453 3.439 -4.752 L 4.488 -6.223 L 5.748 -6.223 L 3.598 -3.293 L 5.912 0 L 4.617 0 L 3.34 -1.934 L 3 -2.455 L 1.365 0 Z " /></symbol><symbol id="arial_3" viewBox="0 -12.475 0 16.371" /><symbol id="arial_57" viewBox="0 -12.475 7.91 16.371"><path d="M 3.381 0 L 3.381 0 L 0.053 -8.59 L 1.283 -8.59 L 3.516 -2.35 Q 3.785 -1.6 3.967 -0.943 Q 4.166 -1.646 4.43 -2.35 L 6.75 -8.59 L 7.91 -8.59 L 4.547 0 Z " /></symbol><symbol id="arial_70" viewBox="0 -12.475 5.889 16.371"><path d="M 4.852 -2.279 L 4.852 -2.279 L 5.889 -2.145 Q 5.719 -1.072 5.019 -0.466 Q 4.318 0.141 3.299 0.141 Q 2.021 0.141 1.245 -0.694 Q 0.469 -1.529 0.469 -3.088 Q 0.469 -4.096 0.803 -4.852 Q 1.137 -5.607 1.819 -5.985 Q 2.502 -6.363 3.305 -6.363 Q 4.318 -6.363 4.963 -5.851 Q 5.607 -5.338 5.789 -4.395 L 4.764 -4.236 Q 4.617 -4.863 4.245 -5.18 Q 3.873 -5.496 3.346 -5.496 Q 2.549 -5.496 2.051 -4.925 Q 1.553 -4.354 1.553 -3.117 Q 1.553 -1.863 2.033 -1.295 Q 2.514 -0.727 3.287 -0.727 Q 3.908 -0.727 4.324 -1.107 Q 4.74 -1.488 4.852 -2.279 Z " /></symbol><symbol id="arial_70" viewBox="0 -12.475 5.889 16.371"><path d="M 4.852 -2.279 L 4.852 -2.279 L 5.889 -2.145 Q 5.719 -1.072 5.019 -0.466 Q 4.318 0.141 3.299 0.141 Q 2.021 0.141 1.245 -0.694 Q 0.469 -1.529 0.469 -3.088 Q 0.469 -4.096 0.803 -4.852 Q 1.137 -5.607 1.819 -5.985 Q 2.502 -6.363 3.305 -6.363 Q 4.318 -6.363 4.963 -5.851 Q 5.607 -5.338 5.789 -4.395 L 4.764 -4.236 Q 4.617 -4.863 4.245 -5.18 Q 3.873 -5.496 3.346 -5.496 Q 2.549 -5.496 2.051 -4.925 Q 1.553 -4.354 1.553 -3.117 Q 1.553 -1.863 2.033 -1.295 Q 2.514 -0.727 3.287 -0.727 Q 3.908 -0.727 4.324 -1.107 Q 4.74 -1.488 4.852 -2.279 Z " /></symbol><g transform="translate(77.487 228.225)" fill="#222222"><use href="#arial_40" x="0" y="-12.475" width="7.359" height="16.371" /><use href="#arial_3" x="8.004" y="-12.475" width="0" height="16.371" /><use href="#arial_32" x="11.338" y="-12.475" width="6.34" height="16.371" /><use href="#arial_3" x="18.346" y="-12.475" width="0" height="16.371" /><use href="#arial_21" x="21.68" y="-12.475" width="6.041" height="16.371" /><use href="#arial_3" x="28.354" y="-12.475" width="0" height="16.371" /><use href="#arial_91" x="31.688" y="-12.475" width="5.912" height="16.371" /><use href="#arial_3" x="37.688" y="-12.475" width="0" height="16.371" /><use href="#arial_57" x="41.021" y="-12.475" width="7.91" height="16.371" /><use href="#arial_70" x="49.025" y="-12.475" width="5.889" height="16.371" /><use href="#arial_70" x="55.025" y="-12.475" width="5.889" height="16.371" /></g></g></g><circle cx="71.99999999999999" cy="108.0" r="2.6999999999999997" style="stroke:#222222;fill:#222222;stroke-width:1.6;stroke-dasharray:-;" /></svg>