<svg xmlns="http://www.w3.org/2000/svg" xmlns:xlink="http://www.w3.org/1999/xlink" xml:lang="en" height="244.73046875pt" width="236.244921875pt" viewBox="-155.29140625 -14.365234375 236.244921875 244.73046875"><circle cx="-72.00000000000001" cy="53.99999999999999" r="18.0" style="stroke:#1F2937;fill:#f1e9b9;stroke-width:2;stroke-dasharray:-;" /><circle cx="-72.00000000000003" cy="162.0" r="18.0" style="stroke:#1F2937;fill:#f1e9b9;stroke-width:2;stroke-dasharray:-;" /><path d="M 0.0,-0.0 L -36.0,-4.408728476930472e-15 L -72.0,-8.817456953860943e-15" style="stroke:#172BDF;fill:none;stroke-width:1.5;stroke-dasharray:-;stroke-linecap:round;stroke-linejoin:round;" /><path d="M -72.0,-8.817456953860943e-15 L -72.0,35.99999999999999 L -72.0,35.99999999999999 M -72.00000000000001,71.99999999999999 L -72.00000000000001,71.99999999999999 L -72.00000000000001,107.99999999999999" style="stroke:#1F2937;fill:#f1e9b9;stroke-width:2;stroke-dasharray:-;stroke-linecap:round;stroke-linejoin:round;" /><path d="M -68.4,62.99999999999999 L -75.60000000000002,62.99999999999999" style="stroke:#1F2937;fill:none;stroke-width:2;stroke-dasharray:-;stroke-linecap:round;stroke-linejoin:round;" /><path d="M -72.0,41.39999999999999 L -72.00000000000001,48.599999999999994" style="stroke:#1F2937;fill:none;stroke-width:2;stroke-dasharray:-;stroke-linecap:round;stroke-linejoin:round;" /><path d="M -68.4,44.99999999999999 L -75.60000000000001,44.99999999999999" style="stroke:#1F2937;fill:none;stroke-width:2;stroke-dasharray:-;stroke-linecap:round;stroke-linejoin:round;" /><path d="M -72.00000000000001,107.99999999999999 L -36.000000000000014,107.99999999999999 L -1.5987211554602254e-14,107.99999999999999" style="stroke:#172BDF;fill:none;stroke-width:1.5;stroke-dasharray:-;stroke-linecap:round;stroke-linejoin:round;" /><path d="M -1.5987211554602254e-14,107.99999999999999 L -1.5987211554602254e-14,122.39999999999998 L -9.000000000000016,122.39999999999998 L 8.999999999999984,122.39999999999998 M -6.300000000000016,126.71999999999998 L 6.299999999999984,126.71999999999998 M -1.800000000000016,131.04 L 1.799999999999984,131.04" style="stroke:#1F2937;fill:none;stroke-width:2;stroke-dasharray:-;stroke-linecap:round;stroke-linejoin:round;" /><path d="M -72.00000000000001,107.99999999999999 L -72.00000000000001,143.99999999999997 L -72.00000000000001,143.99999999999997 M -72.00000000000003,180.0 L -72.00000000000003,180.0 L -72.00000000000003,216.0" style="stroke:#1F2937;fill:#f1e9b9;stroke-width:2;stroke-dasharray:-;stroke-linecap:round;stroke-linejoin:round;" /><path d="M -68.40000000000003,171.0 L -75.60000000000004,171.0" style="stroke:#1F2937;fill:none;stroke-width:2;stroke-dasharray:-;stroke-linecap:round;stroke-linejoin:round;" /><path d="M -72.00000000000001,149.39999999999998 L -72.00000000000003,156.6" style="stroke:#1F2937;fill:none;stroke-width:2;stroke-dasharray:-;stroke-linecap:round;stroke-linejoin:round;" /><path d="M -68.40000000000002,153.0 L -75.60000000000002,153.0" style="stroke:#1F2937;fill:none;stroke-width:2;stroke-dasharray:-;stroke-linecap:round;stroke-linejoin:round;" /><path d="M -72.00000000000003,216.0 L -36.00000000000003,216.0 L -3.197442310920451e-14,216.0" style="stroke:#172BDF;fill:none;stroke-width:1.5;stroke-dasharray:-;stroke-linecap:round;stroke-linejoin:round;" /><g><g><symbol id="arial_3" viewBox="0 -12.475 0 16.371" /><symbol id="arial_57" viewBox="0 -12.475 7.91 16.371"><path d="M 3.381 0 L 3.381 0 L 0.053 -8.59 L 1.283 -8.59 L 3.516 -2.35 Q 3.785 -1.6 3.967 -0.943 Q 4.166 -1.646 4.43 -2.35 L 6.75 -8.59 L 7.91 -8.59 L 4.547 0 Z " /></symbol><symbol id="arial_70" viewBox="0 -12.475 5.889 16.371"><path d="M 4.852 -2.279 L 4.852 -2.279 L 5.889 -2.145 Q 5.719 -1.072 5.019 -0.466 Q 4.318 0.141 3.299 0.141 Q 2.021 0.141 1.245 -0.694 Q 0.469 -1.529 0.469 -3.088 Q 0.469 -4.096 0.803 -4.852 Q 1.137 -5.607 1.819 -5.985 Q 2.502 -6.363 3.305 -6.363 Q 4.318 -6.363 4.963 -5.851 Q 5.607 -5.338 5.789 -4.395 L 4.764 -4.236 Q 4.617 -4.863 4.245 -5.18 Q 3.873 -5.496 3.346 -5.496 Q 2.549 -5.496 2.051 -4.925 Q 1.553 -4.354 1.553 -3.117 Q 1.553 -1.863 2.033 -1.295 Q 2.514 -0.727 3.287 -0.727 Q 3.908 -0.727 4.324 -1.107 Q 4.74 -1.488 4.852 -2.279 Z " /></symbol><symbol id="arial_70" viewBox="0 -12.475 5.889 16.371"><path d="M 4.852 -2.279 L 4.852 -2.279 L 5.889 -2.145 Q 5.719 -1.072 5.019 -0.466 Q 4.318 0.141 3.299 0.141 Q 2.021 0.141 1.245 -0.694 Q 0.469 -1.529 0.469 -3.088 Q 0.469 -4.096 0.803 -4.852 Q 1.137 -5.607 1.819 -5.985 Q 2.502 -6.363 3.305 -6.363 Q 4.318 -6.363 4.963 -5.851 Q 5.607 -5.338 5.789 -4.395 L 4.764 -4.236 Q 4.617 -4.863 4.245 -5.18 Q 3.873 -5.496 3.346 -5.496 Q 2.549 -5.496 2.051 -4.925 Q 1.553 -4.354 1.553 -3.117 Q 1.553 -1.863 2.033 -1.295 Q 2.514 -0.727 3.287 -0.727 Q 3.908 -0.727 4.324 -1.107 Q 4.74 -1.488 4.852 -2.279 Z " /></symbol><g transform="translate(3.6 4.225)" fill="#172BDF"><use href="#arial_3" x="0" y="-12.475" width="0" height="16.371" /><use href="#arial_57" x="3.334" y="-12.475" width="7.91" height="16.371" /><use href="#arial_70" x="11.338" y="-12.475" width="5.889" height="16.371" /><use href="#arial_70" x="17.338" y="-12.475" width="5.889" height="16.371" /></g></g></g><g><g><symbol id="arial_40" viewBox="0 -12.475 7.359 16.371"><path d="M 0.949 0 L 0.949 0 L 0.949 -8.59 L 7.16 -8.59 L 7.16 -7.576 L 2.086 -7.576 L 2.086 -4.945 L 6.838 -4.945 L 6.838 -3.938 L 2.086 -3.938 L 2.086 -1.014 L 7.359 -1.014 L 7.359 0 Z " /></symbol><symbol id="arial_20" viewBox="0 -12.475 4.471 16.371"><path d="M 4.471 0 L 4.471 0 L 3.416 0 L 3.416 -6.721 Q 3.035 -6.357 2.417 -5.994 Q 1.799 -5.631 1.307 -5.449 L 1.307 -6.469 Q 2.191 -6.885 2.854 -7.477 Q 3.516 -8.068 3.791 -8.625 L 4.471 -8.625 Z " /></symbol><symbol id="arial_3" viewBox="0 -12.475 0 16.371" /><symbol id="arial_32" viewBox="0 -12.475 6.34 16.371"><path d="M 6.34 -5.051 L 6.34 -5.051 L 0.668 -5.051 L 0.668 -6.035 L 6.34 -6.035 Z M 6.34 -2.443 L 6.34 -2.443 L 0.668 -2.443 L 0.668 -3.428 L 6.34 -3.428 Z " /></symbol><symbol id="arial_3" viewBox="0 -12.475 0 16.371" /><symbol id="arial_57" viewBox="0 -12.475 7.91 16.371"><path d="M 3.381 0 L 3.381 0 L 0.053 -8.59 L 1.283 -8.59 L 3.516 -2.35 Q 3.785 -1.6 3.967 -0.943 Q 4.166 -1.646 4.43 -2.35 L 6.75 -8.59 L 7.91 -8.59 L 4.547 0 Z " /></symbol><symbol id="arial_70" viewBox="0 -12.475 5.889 16.371"><path d="M 4.852 -2.279 L 4.852 -2.279 L 5.889 -2.145 Q 5.719 -1.072 5.019 -0.466 Q 4.318 0.141 3.299 0.141 Q 2.021 0.141 1.245 -0.694 Q 0.469 -1.529 0.469 -3.088 Q 0.469 -4.096 0.803 -4.852 Q 1.137 -5.607 1.819 -5.985 Q 2.502 -6.363 3.305 -6.363 Q 4.318 -6.363 4.963 -5.851 Q 5.607 -5.338 5.789 -4.395 L 4.764 -4.236 Q 4.617 -4.863 4.245 -5.18 Q 3.873 -5.496 3.346 -5.496 Q 2.549 -5.496 2.051 -4.925 Q 1.553 -4.354 1.553 -3.117 Q 1.553 -1.863 2.033 -1.295 Q 2.514 -0.727 3.287 -0.727 Q 3.908 -0.727 4.324 -1.107 Q 4.74 -1.488 4.852 -2.279 Z " /></symbol><symbol id="arial_70" viewBox="0 -12.475 5.889 16.371"><path d="M 4.852 -2.279 L 4.852 -2.279 L 5.889 -2.145 Q 5.719 -1.072 5.019 -0.466 Q 4.318 0.141 3.299 0.141 Q 2.021 0.141 1.245 -0.694 Q 0.469 -1.529 0.469 -3.088 Q 0.469 -4.096 0.803 -4.852 Q 1.137 -5.607 1.819 -5.985 Q 2.502 -6.363 3.305 -6.363 Q 4.318 -6.363 4.963 -5.851 Q 5.607 -5.338 5.789 -4.395 L 4.764 -4.236 Q 4.617 -4.863 4.245 -5.18 Q 3.873 -5.496 3.346 -5.496 Q 2.549 -5.496 2.051 -4.925 Q 1.553 -4.354 1.553 -3.117 Q 1.553 -1.863 2.033 -1.295 Q 2.514 -0.727 3.287 -0.727 Q 3.908 -0.727 4.324 -1.107 Q 4.74 -1.488 4.852 -2.279 Z " /></symbol><symbol id="arial_3" viewBox="0 -12.475 0 16.371" /><g transform="translate(-145.291 58.242)" fill="#1F2937"><use href="#arial_40" x="0" y="-12.475" width="7.359" height="16.371" /><use href="#arial_20" x="8.004" y="-12.475" width="4.471" height="16.371" /><use href="#arial_3" x="14.678" y="-12.475" width="0" height="16.371" /><use href="#arial_32" x="18.012" y="-12.475" width="6.34" height="16.371" /><use href="#arial_3" x="25.02" y="-12.475" width="0" height="16.371" /><use href="#arial_57" x="28.354" y="-12.475" width="7.91" height="16.371" /><use href="#arial_70" x="36.357" y="-12.475" width="5.889" height="16.371" /><use href="#arial_70" x="42.357" y="-12.475" width="5.889" height="16.371" /><use href="#arial_3" x="48.357" y="-12.475" width="0" height="16.371" /></g></g></g><g><g><symbol id="arial_42" viewBox="0 -12.475 8.584 16.371"><path d="M 4.945 -3.369 L 4.945 -3.369 L 4.945 -4.377 L 8.584 -4.383 L 8.584 -1.195 Q 7.746 -0.527 6.855 -0.19 Q 5.965 0.146 5.027 0.146 Q 3.762 0.146 2.728 -0.396 Q 1.693 -0.938 1.166 -1.963 Q 0.639 -2.988 0.639 -4.254 Q 0.639 -5.508 1.163 -6.595 Q 1.688 -7.682 2.672 -8.209 Q 3.656 -8.736 4.939 -8.736 Q 5.871 -8.736 6.624 -8.435 Q 7.377 -8.133 7.805 -7.594 Q 8.232 -7.055 8.455 -6.188 L 7.43 -5.906 Q 7.236 -6.562 6.949 -6.938 Q 6.662 -7.312 6.129 -7.538 Q 5.596 -7.764 4.945 -7.764 Q 4.166 -7.764 3.598 -7.526 Q 3.029 -7.289 2.681 -6.902 Q 2.332 -6.516 2.139 -6.053 Q 1.811 -5.256 1.811 -4.324 Q 1.811 -3.176 2.206 -2.402 Q 2.602 -1.629 3.357 -1.254 Q 4.113 -0.879 4.963 -0.879 Q 5.701 -0.879 6.404 -1.163 Q 7.107 -1.447 7.471 -1.77 L 7.471 -3.369 Z " /></symbol><symbol id="arial_49" viewBox="0 -12.475 7.682 16.371"><path d="M 0.914 0 L 0.914 0 L 0.914 -8.59 L 2.08 -8.59 L 6.592 -1.846 L 6.592 -8.59 L 7.682 -8.59 L 7.682 0 L 6.516 0 L 2.004 -6.75 L 2.004 0 Z " /></symbol><symbol id="arial_39" viewBox="0 -12.475 8.027 16.371"><path d="M 0.926 0 L 0.926 0 L 0.926 -8.59 L 3.885 -8.59 Q 4.887 -8.59 5.414 -8.467 Q 6.152 -8.297 6.674 -7.852 Q 7.354 -7.277 7.69 -6.384 Q 8.027 -5.49 8.027 -4.342 Q 8.027 -3.363 7.799 -2.607 Q 7.57 -1.852 7.213 -1.356 Q 6.855 -0.861 6.431 -0.577 Q 6.006 -0.293 5.405 -0.146 Q 4.805 0 4.025 0 Z M 2.062 -1.014 L 2.062 -1.014 L 3.896 -1.014 Q 4.746 -1.014 5.229 -1.172 Q 5.713 -1.33 6 -1.617 Q 6.404 -2.021 6.63 -2.704 Q 6.855 -3.387 6.855 -4.359 Q 6.855 -5.707 6.413 -6.431 Q 5.971 -7.154 5.338 -7.4 Q 4.881 -7.576 3.867 -7.576 L 2.062 -7.576 Z " /></symbol><symbol id="arial_3" viewBox="0 -12.475 0 16.371" /><symbol id="arial_32" viewBox="0 -12.475 6.34 16.371"><path d="M 6.34 -5.051 L 6.34 -5.051 L 0.668 -5.051 L 0.668 -6.035 L 6.34 -6.035 Z M 6.34 -2.443 L 6.34 -2.443 L 0.668 -2.443 L 0.668 -3.428 L 6.34 -3.428 Z " /></symbol><symbol id="arial_3" viewBox="0 -12.475 0 16.371" /><symbol id="arial_19" viewBox="0 -12.475 6.1 16.371"><path d="M 0.498 -4.236 L 0.498 -4.236 Q 0.498 -5.76 0.812 -6.688 Q 1.125 -7.617 1.743 -8.121 Q 2.361 -8.625 3.299 -8.625 Q 3.99 -8.625 4.512 -8.347 Q 5.033 -8.068 5.373 -7.544 Q 5.713 -7.02 5.906 -6.267 Q 6.1 -5.514 6.1 -4.236 Q 6.1 -2.725 5.789 -1.796 Q 5.479 -0.867 4.86 -0.36 Q 4.242 0.146 3.299 0.146 Q 2.057 0.146 1.348 -0.744 Q 0.498 -1.816 0.498 -4.236 Z M 1.582 -4.236 L 1.582 -4.236 Q 1.582 -2.121 2.077 -1.421 Q 2.572 -0.721 3.299 -0.721 Q 4.025 -0.721 4.521 -1.424 Q 5.016 -2.127 5.016 -4.236 Q 5.016 -6.357 4.521 -7.055 Q 4.025 -7.752 3.287 -7.752 Q 2.561 -7.752 2.127 -7.137 Q 1.582 -6.352 1.582 -4.236 Z " /></symbol><symbol id="arial_3" viewBox="0 -12.475 0 16.371" /><symbol id="arial_57" viewBox="0 -12.475 7.91 16.371"><path d="M 3.381 0 L 3.381 0 L 0.053 -8.59 L 1.283 -8.59 L 3.516 -2.35 Q 3.785 -1.6 3.967 -0.943 Q 4.166 -1.646 4.43 -2.35 L 6.75 -8.59 L 7.91 -8.59 L 4.547 0 Z " /></symbol><g transform="translate(12.6 123.815)" fill="#1F2937"><use href="#arial_42" x="0" y="-12.475" width="8.584" height="16.371" /><use href="#arial_49" x="9.334" y="-12.475" width="7.682" height="16.371" /><use href="#arial_39" x="18" y="-12.475" width="8.027" height="16.371" /><use href="#arial_3" x="26.666" y="-12.475" width="0" height="16.371" /><use href="#arial_32" x="30" y="-12.475" width="6.34" height="16.371" /><use href="#arial_3" x="37.008" y="-12.475" width="0" height="16.371" /><use href="#arial_19" x="40.342" y="-12.475" width="6.1" height="16.371" /><use href="#arial_3" x="47.016" y="-12.475" width="0" height="16.371" /><use href="#arial_57" x="50.35" y="-12.475" width="7.91" height="16.371" /></g></g></g><g><g><symbol id="arial_40" viewBox="0 -12.475 7.359 16.371"><path d="M 0.949 0 L 0.949 0 L 0.949 -8.59 L 7.16 -8.59 L 7.16 -7.576 L 2.086 -7.576 L 2.086 -4.945 L 6.838 -4.945 L 6.838 -3.938 L 2.086 -3.938 L 2.086 -1.014 L 7.359 -1.014 L 7.359 0 Z " /></symbol><symbol id="arial_21" viewBox="0 -12.475 6.041 16.371"><path d="M 6.041 -1.014 L 6.041 -1.014 L 6.041 0 L 0.363 0 Q 0.352 -0.381 0.486 -0.732 Q 0.703 -1.312 1.181 -1.875 Q 1.658 -2.438 2.561 -3.176 Q 3.961 -4.324 4.453 -4.995 Q 4.945 -5.666 4.945 -6.264 Q 4.945 -6.891 4.497 -7.321 Q 4.049 -7.752 3.328 -7.752 Q 2.566 -7.752 2.109 -7.295 Q 1.652 -6.838 1.646 -6.029 L 0.562 -6.141 Q 0.674 -7.354 1.4 -7.989 Q 2.127 -8.625 3.352 -8.625 Q 4.588 -8.625 5.309 -7.939 Q 6.029 -7.254 6.029 -6.24 Q 6.029 -5.725 5.818 -5.227 Q 5.607 -4.729 5.118 -4.178 Q 4.629 -3.627 3.492 -2.666 Q 2.543 -1.869 2.273 -1.585 Q 2.004 -1.301 1.828 -1.014 Z " /></symbol><symbol id="arial_3" viewBox="0 -12.475 0 16.371" /><symbol id="arial_32" viewBox="0 -12.475 6.34 16.371"><path d="M 6.34 -5.051 L 6.34 -5.051 L 0.668 -5.051 L 0.668 -6.035 L 6.34 -6.035 Z M 6.34 -2.443 L 6.34 -2.443 L 0.668 -2.443 L 0.668 -3.428 L 6.34 -3.428 Z " /></symbol><symbol id="arial_3" viewBox="0 -12.475 0 16.371" /><symbol id="arial_57" viewBox="0 -12.475 7.91 16.371"><path d="M 3.381 0 L 3.381 0 L 0.053 -8.59 L 1.283 -8.59 L 3.516 -2.35 Q 3.785 -1.6 3.967 -0.943 Q 4.166 -1.646 4.43 -2.35 L 6.75 -8.59 L 7.91 -8.59 L 4.547 0 Z " /></symbol><symbol id="arial_70" viewBox="0 -12.475 5.889 16.371"><path d="M 4.852 -2.279 L 4.852 -2.279 L 5.889 -2.145 Q 5.719 -1.072 5.019 -0.466 Q 4.318 0.141 3.299 0.141 Q 2.021 0.141 1.245 -0.694 Q 0.469 -1.529 0.469 -3.088 Q 0.469 -4.096 0.803 -4.852 Q 1.137 -5.607 1.819 -5.985 Q 2.502 -6.363 3.305 -6.363 Q 4.318 -6.363 4.963 -5.851 Q 5.607 -5.338 5.789 -4.395 L 4.764 -4.236 Q 4.617 -4.863 4.245 -5.18 Q 3.873 -5.496 3.346 -5.496 Q 2.549 -5.496 2.051 -4.925 Q 1.553 -4.354 1.553 -3.117 Q 1.553 -1.863 2.033 -1.295 Q 2.514 -0.727 3.287 -0.727 Q 3.908 -0.727 4.324 -1.107 Q 4.74 -1.488 4.852 -2.279 Z " /></symbol><symbol id="arial_70" viewBox="0 -12.475 5.889 16.371"><path d="M 4.852 -2.279 L 4.852 -2.279 L 5.889 -2.145 Q 5.719 -1.072 5.019 -0.466 Q 4.318 0.141 3.299 0.141 Q 2.021 0.141 1.245 -0.694 Q 0.469 -1.529 0.469 -3.088 Q 0.469 -4.096 0.803 -4.852 Q 1.137 -5.607 1.819 -5.985 Q 2.502 -6.363 3.305 -6.363 Q 4.318 -6.363 4.963 -5.851 Q 5.607 -5.338 5.789 -4.395 L 4.764 -4.236 Q 4.617 -4.863 4.245 -5.18 Q 3.873 -5.496 3.346 -5.496 Q 2.549 -5.496 2.051 -4.925 Q 1.553 -4.354 1.553 -3.117 Q 1.553 -1.863 2.033 -1.295 Q 2.514 -0.727 3.287 -0.727 Q 3.908 -0.727 4.324 -1.107 Q 4.74 -1.488 4.852 -2.279 Z " /></symbol><symbol id="arial_3" viewBox="0 -12.475 0 16.371" /><g transform="translate(-145.291 166.242)" fill="#1F2937"><use href="#arial_40" x="0" y="-12.475" width="7.359" height="16.371" /><use href="#arial_21" x="8.004" y="-12.475" width="6.041" height="16.371" /><use href="#arial_3" x="14.678" y="-12.475" width="0" height="16.371" /><use href="#arial_32" x="18.012" y="-12.475" width="6.34" height="16.371" /><use href="#arial_3" x="25.02" y="-12.475" width="0" height="16.371" /><use href="#arial_57" x="28.354" y="-12.475" width="7.91" height="16.371" /><use href="#arial_70" x="36.357" y="-12.475" width="5.889" height="16.371" /><use href="#arial_70" x="42.357" y="-12.475" width="5.889" height="16.371" /><use href="#arial_3" x="48.357" y="-12.475" width="0" height="16.371" /></g></g></g><g><g><symbol id="arial_3" viewBox="0 -12.475 0 16.371" /><symbol id="arial_16" viewBox="0 -12.475 3.621 16.371"><path d="M 0.381 -2.578 L 0.381 -2.578 L 0.381 -3.639 L 3.621 -3.639 L 3.621 -2.578 Z " /></symbol><symbol id="arial_57" viewBox="0 -12.475 7.91 16.371"><path d="M 3.381 0 L 3.381 0 L 0.053 -8.59 L 1.283 -8.59 L 3.516 -2.35 Q 3.785 -1.6 3.967 -0.943 Q 4.166 -1.646 4.43 -2.35 L 6.75 -8.59 L 7.91 -8.59 L 4.547 0 Z " /></symbol><symbol id="arial_70" viewBox="0 -12.475 5.889 16.371"><path d="M 4.852 -2.279 L 4.852 -2.279 L 5.889 -2.145 Q 5.719 -1.072 5.019 -0.466 Q 4.318 0.141 3.299 0.141 Q 2.021 0.141 1.245 -0.694 Q 0.469 -1.529 0.469 -3.088 Q 0.469 -4.096 0.803 -4.852 Q 1.137 -5.607 1.819 -5.985 Q 2.502 -6.363 3.305 -6.363 Q 4.318 -6.363 4.963 -5.851 Q 5.607 -5.338 5.789 -4.395 L 4.764 -4.236 Q 4.617 -4.863 4.245 -5.18 Q 3.873 -5.496 3.346 -5.496 Q 2.549 -5.496 2.051 -4.925 Q 1.553 -4.354 1.553 -3.117 Q 1.553 -1.863 2.033 -1.295 Q 2.514 -0.727 3.287 -0.727 Q 3.908 -0.727 4.324 -1.107 Q 4.74 -1.488 4.852 -2.279 Z " /></symbol><symbol id="arial_70" viewBox="0 -12.475 5.889 16.371"><path d="M 4.852 -2.279 L 4.852 -2.279 L 5.889 -2.145 Q 5.719 -1.072 5.019 -0.466 Q 4.318 0.141 3.299 0.141 Q 2.021 0.141 1.245 -0.694 Q 0.469 -1.529 0.469 -3.088 Q 0.469 -4.096 0.803 -4.852 Q 1.137 -5.607 1.819 -5.985 Q 2.502 -6.363 3.305 -6.363 Q 4.318 -6.363 4.963 -5.851 Q 5.607 -5.338 5.789 -4.395 L 4.764 -4.236 Q 4.617 -4.863 4.245 -5.18 Q 3.873 -5.496 3.346 -5.496 Q 2.549 -5.496 2.051 -4.925 Q 1.553 -4.354 1.553 -3.117 Q 1.553 -1.863 2.033 -1.295 Q 2.514 -0.727 3.287 -0.727 Q 3.908 -0.727 4.324 -1.107 Q 4.74 -1.488 4.852 -2.279 Z " /></symbol><g transform="translate(3.6 220.225)" fill="#172BDF"><use href="#arial_3" x="0" y="-12.475" width="0" height="16.371" /><use href="#arial_16" x="3.334" y="-12.475" width="3.621" height="16.371" /><use href="#arial_57" x="7.33" y="-12.475" width="7.91" height="16.371" /><use href="#arial_70" x="15.334" y="-12.475" width="5.889" height="16.371" /><use href="#arial_70" x="21.334" y="-12.475" width="5.889" height="16.371" /></g></g></g><circle cx="0.0" cy="-0.0" r="2.6999999999999997" style="stroke:#1F2937;fill:#1f2937;stroke-width:2;stroke-dasharray:-;" /><circle cx="-3.197442310920451e-14" cy="216.0" r="2.6999999999999997" style="stroke:#1F2937;fill:#1f2937;stroke-width:2;stroke-dasharray:-;" /></svg>