<svg xmlns="http://www.w3.org/2000/svg" xmlns:xlink="http://www.w3.org/1999/xlink" xml:lang="en" height="242.84900000000002pt" width="252.30599999999998pt" viewBox="-4.6 -9.283 252.30599999999998 242.84900000000002"><circle cx="71.99999999999999" cy="54.0" r="18.0" style="stroke:black;fill:none;stroke-width:2.0;stroke-dasharray:-;" /><circle cx="143.99999999999997" cy="162.0" r="18.0" style="stroke:black;fill:none;stroke-width:2.0;stroke-dasharray:-;" /><path d="M 0.0,-0.0 L 36.0,-0.0 L 72.0,-0.0" style="stroke:black;fill:none;stroke-width:2.0;stroke-dasharray:-;stroke-linecap:round;stroke-linejoin:round;" /><path d="M 72.0,-0.0 L 71.99999999999999,36.0 L 71.99999999999999,36.0 M 71.99999999999999,72.0 L 71.99999999999999,72.0 L 71.99999999999999,108.0" style="stroke:black;fill:none;stroke-width:2.0;stroke-dasharray:-;stroke-linecap:round;stroke-linejoin:round;" /><path d="M 68.39999999999999,45.0 L 75.6,45.0" style="stroke:black;fill:none;stroke-width:2.0;stroke-dasharray:-;stroke-linecap:round;stroke-linejoin:round;" /><path d="M 71.99999999999999,59.4 L 71.99999999999999,66.60000000000001" style="stroke:black;fill:none;stroke-width:2.0;stroke-dasharray:-;stroke-linecap:round;stroke-linejoin:round;" /><path d="M 68.39999999999999,63.0 L 75.6,63.0" style="stroke:black;fill:none;stroke-width:2.0;stroke-dasharray:-;stroke-linecap:round;stroke-linejoin:round;" /><path d="M 71.99999999999999,108.0 L 107.99999999999999,108.0 L 143.99999999999997,108.0" style="stroke:black;fill:none;stroke-width:2.0;stroke-dasharray:-;stroke-linecap:round;stroke-linejoin:round;" /><path d="M 143.99999999999997,108.0 L 143.99999999999997,122.39999999999999 L 134.99999999999997,122.39999999999999 L 153.0,122.39999999999999 M 137.7,126.72 L 150.29999999999998,126.72 M 142.2,131.04 L 145.79999999999998,131.04" style="stroke:black;fill:none;stroke-width:2.0;stroke-dasharray:-;stroke-linecap:round;stroke-linejoin:round;" /><path d="M 143.99999999999997,108.0 L 143.99999999999997,144.0 L 143.99999999999997,144.0 M 143.99999999999997,180.0 L 143.99999999999997,180.0 L 143.99999999999997,216.0" style="stroke:black;fill:none;stroke-width:2.0;stroke-dasharray:-;stroke-linecap:round;stroke-linejoin:round;" /><path d="M 140.39999999999998,153.0 L 147.6,153.0" style="stroke:black;fill:none;stroke-width:2.0;stroke-dasharray:-;stroke-linecap:round;stroke-linejoin:round;" /><path d="M 143.99999999999997,167.4 L 143.99999999999997,174.6" style="stroke:black;fill:none;stroke-width:2.0;stroke-dasharray:-;stroke-linecap:round;stroke-linejoin:round;" /><path d="M 140.39999999999998,171.0 L 147.6,171.0" style="stroke:black;fill:none;stroke-width:2.0;stroke-dasharray:-;stroke-linecap:round;stroke-linejoin:round;" /><path d="M 143.99999999999997,216.0 L 179.99999999999997,216.0 L 215.99999999999997,216.0" style="stroke:black;fill:none;stroke-width:2.0;stroke-dasharray:-;stroke-linecap:round;stroke-linejoin:round;" /><g><g><g><symbol id="STIXTwoMathRegular_3680" viewBox="0 -31.524 6.324 51.216"><path d="M 2.58 0 L 2.58 0 L 0.012 -7.884 L 1.104 -7.884 L 2.4 -3.636 Q 2.604 -2.94 2.772 -2.334 Q 2.94 -1.728 3.168 -1.032 L 3.228 -1.032 Q 3.444 -1.728 3.618 -2.334 Q 3.792 -2.94 3.996 -3.636 L 5.28 -7.884 L 6.324 -7.884 L 3.768 0 Z " /></symbol><use href="#STIXTwoMathRegular_3680" x="75.6" y="-32.263" width="7.378" height="59.752" fill="black" /><symbol id="STIXTwoMathRegular_3687" viewBox="0 -31.524 5.016 51.216"><path d="M 3.144 0.144 L 3.144 0.144 Q 2.412 0.144 1.818 -0.216 Q 1.224 -0.576 0.876 -1.242 Q 0.528 -1.908 0.528 -2.82 Q 0.528 -3.78 0.906 -4.452 Q 1.284 -5.124 1.902 -5.472 Q 2.52 -5.82 3.24 -5.82 Q 3.84 -5.82 4.23 -5.616 Q 4.62 -5.412 4.908 -5.16 L 4.416 -4.524 Q 4.164 -4.752 3.894 -4.884 Q 3.624 -5.016 3.276 -5.016 Q 2.772 -5.016 2.376 -4.74 Q 1.98 -4.464 1.752 -3.978 Q 1.524 -3.492 1.524 -2.832 Q 1.524 -1.86 2.01 -1.26 Q 2.496 -0.66 3.252 -0.66 Q 3.672 -0.66 4.002 -0.828 Q 4.332 -0.996 4.596 -1.224 L 5.016 -0.576 Q 4.632 -0.24 4.164 -0.048 Q 3.696 0.144 3.144 0.144 Z " /></symbol><use href="#STIXTwoMathRegular_3687" x="82.978" y="-32.263" width="5.852" height="59.752" fill="black" /><use href="#STIXTwoMathRegular_3687" x="89.152" y="-32.263" width="5.852" height="59.752" fill="black" /></g></g></g><g><g><g><symbol id="STIXTwoMathRegular_3663" viewBox="0 -31.524 5.868 51.216"><path d="M 1.104 0 L 1.104 0 L 1.104 -7.884 L 5.748 -7.884 L 5.748 -7.02 L 2.136 -7.02 L 2.136 -4.56 L 5.184 -4.56 L 5.184 -3.708 L 2.136 -3.708 L 2.136 -0.876 L 5.868 -0.876 L 5.868 0 Z " /></symbol><use href="#STIXTwoMathRegular_3663" x="47.122" y="84.02" width="6.846" height="59.752" fill="black" /><symbol id="STIXTwoMathRegular_4244" viewBox="0 -31.524 3.756 51.216"><path d="M 3.756 0 L 3.756 0 L 2.76 0 L 2.76 -6.348 L 1.212 -6.348 L 1.212 -6.996 Q 1.848 -7.092 2.256 -7.23 Q 2.664 -7.368 3 -7.56 L 3.756 -7.56 Z " /></symbol><use href="#STIXTwoMathRegular_4244" x="54.668" y="84.02" width="4.382" height="59.752" fill="black" /><symbol id="STIXTwoMathRegular_2" viewBox="0 -31.524 0 51.216" /><use href="#STIXTwoMathRegular_2" x="61.78" y="84.02" width="0" height="59.752" fill="black" /><symbol id="STIXTwoMathRegular_1202" viewBox="0 -31.524 7.896 51.216"><path d="M 7.896 -3.924 L 7.896 -3.924 L 0.744 -3.924 L 0.744 -4.74 L 7.896 -4.74 Z M 7.896 -1.476 L 7.896 -1.476 L 0.744 -1.476 L 0.744 -2.28 L 7.896 -2.28 Z " /></symbol><use href="#STIXTwoMathRegular_1202" x="65.07" y="84.02" width="9.212" height="59.752" fill="black" /><use href="#STIXTwoMathRegular_2" x="75.15" y="84.02" width="0" height="59.752" fill="black" /><symbol id="STIXTwoMathRegular_3680" viewBox="0 -31.524 6.324 51.216"><path d="M 2.58 0 L 2.58 0 L 0.012 -7.884 L 1.104 -7.884 L 2.4 -3.636 Q 2.604 -2.94 2.772 -2.334 Q 2.94 -1.728 3.168 -1.032 L 3.228 -1.032 Q 3.444 -1.728 3.618 -2.334 Q 3.792 -2.94 3.996 -3.636 L 5.28 -7.884 L 6.324 -7.884 L 3.768 0 Z " /></symbol><use href="#STIXTwoMathRegular_3680" x="78.44" y="84.02" width="7.378" height="59.752" fill="black" /><symbol id="STIXTwoMathRegular_3687" viewBox="0 -31.524 5.016 51.216"><path d="M 3.144 0.144 L 3.144 0.144 Q 2.412 0.144 1.818 -0.216 Q 1.224 -0.576 0.876 -1.242 Q 0.528 -1.908 0.528 -2.82 Q 0.528 -3.78 0.906 -4.452 Q 1.284 -5.124 1.902 -5.472 Q 2.52 -5.82 3.24 -5.82 Q 3.84 -5.82 4.23 -5.616 Q 4.62 -5.412 4.908 -5.16 L 4.416 -4.524 Q 4.164 -4.752 3.894 -4.884 Q 3.624 -5.016 3.276 -5.016 Q 2.772 -5.016 2.376 -4.74 Q 1.98 -4.464 1.752 -3.978 Q 1.524 -3.492 1.524 -2.832 Q 1.524 -1.86 2.01 -1.26 Q 2.496 -0.66 3.252 -0.66 Q 3.672 -0.66 4.002 -0.828 Q 4.332 -0.996 4.596 -1.224 L 5.016 -0.576 Q 4.632 -0.24 4.164 -0.048 Q 3.696 0.144 3.144 0.144 Z " /></symbol><use href="#STIXTwoMathRegular_3687" x="85.818" y="84.02" width="5.852" height="59.752" fill="black" /><use href="#STIXTwoMathRegular_3687" x="91.992" y="84.02" width="5.852" height="59.752" fill="black" /></g></g></g><g><g><g><symbol id="STIXTwoMathRegular_4243" viewBox="0 -31.524 5.556 51.216"><path d="M 3.048 0.144 L 3.048 0.144 Q 1.884 0.144 1.218 -0.882 Q 0.552 -1.908 0.552 -3.804 Q 0.552 -5.712 1.218 -6.702 Q 1.884 -7.692 3.048 -7.692 Q 4.224 -7.692 4.89 -6.696 Q 5.556 -5.7 5.556 -3.804 Q 5.556 -1.908 4.89 -0.882 Q 4.224 0.144 3.048 0.144 Z M 3.048 -0.672 L 3.048 -0.672 Q 3.732 -0.672 4.152 -1.41 Q 4.572 -2.148 4.572 -3.804 Q 4.572 -5.46 4.152 -6.174 Q 3.732 -6.888 3.048 -6.888 Q 2.376 -6.888 1.95 -6.174 Q 1.524 -5.46 1.524 -3.804 Q 1.524 -2.148 1.95 -1.41 Q 2.376 -0.672 3.048 -0.672 Z " /></symbol><use href="#STIXTwoMathRegular_4243" x="156.6" y="87.257" width="6.482" height="59.752" fill="black" /><symbol id="STIXTwoMathRegular_2" viewBox="0 -31.524 0 51.216" /><use href="#STIXTwoMathRegular_2" x="163.712" y="87.257" width="0" height="59.752" fill="black" /><symbol id="STIXTwoMathRegular_3680" viewBox="0 -31.524 6.324 51.216"><path d="M 2.58 0 L 2.58 0 L 0.012 -7.884 L 1.104 -7.884 L 2.4 -3.636 Q 2.604 -2.94 2.772 -2.334 Q 2.94 -1.728 3.168 -1.032 L 3.228 -1.032 Q 3.444 -1.728 3.618 -2.334 Q 3.792 -2.94 3.996 -3.636 L 5.28 -7.884 L 6.324 -7.884 L 3.768 0 Z " /></symbol><use href="#STIXTwoMathRegular_3680" x="167.002" y="87.257" width="7.378" height="59.752" fill="black" /></g></g></g><g><g><g><symbol id="STIXTwoMathRegular_3663" viewBox="0 -31.524 5.868 51.216"><path d="M 1.104 0 L 1.104 0 L 1.104 -7.884 L 5.748 -7.884 L 5.748 -7.02 L 2.136 -7.02 L 2.136 -4.56 L 5.184 -4.56 L 5.184 -3.708 L 2.136 -3.708 L 2.136 -0.876 L 5.868 -0.876 L 5.868 0 Z " /></symbol><use href="#STIXTwoMathRegular_3663" x="119.122" y="192.02" width="6.846" height="59.752" fill="black" /><symbol id="STIXTwoMathRegular_4245" viewBox="0 -31.524 5.544 51.216"><path d="M 0.492 0 L 0.492 0 L 0.492 -0.6 Q 1.668 -1.728 2.484 -2.58 Q 3.3 -3.432 3.732 -4.116 Q 4.164 -4.8 4.164 -5.412 Q 4.164 -6.06 3.798 -6.468 Q 3.432 -6.876 2.688 -6.876 Q 2.196 -6.876 1.782 -6.618 Q 1.368 -6.36 1.02 -5.976 L 0.444 -6.54 Q 0.936 -7.068 1.494 -7.38 Q 2.052 -7.692 2.808 -7.692 Q 3.9 -7.692 4.53 -7.08 Q 5.16 -6.468 5.16 -5.46 Q 5.16 -4.764 4.746 -4.044 Q 4.332 -3.324 3.612 -2.526 Q 2.892 -1.728 1.968 -0.804 Q 2.28 -0.828 2.628 -0.846 Q 2.976 -0.864 3.276 -0.864 L 5.544 -0.864 L 5.544 0 Z " /></symbol><use href="#STIXTwoMathRegular_4245" x="126.668" y="192.02" width="6.468" height="59.752" fill="black" /><symbol id="STIXTwoMathRegular_2" viewBox="0 -31.524 0 51.216" /><use href="#STIXTwoMathRegular_2" x="133.78" y="192.02" width="0" height="59.752" fill="black" /><symbol id="STIXTwoMathRegular_1202" viewBox="0 -31.524 7.896 51.216"><path d="M 7.896 -3.924 L 7.896 -3.924 L 0.744 -3.924 L 0.744 -4.74 L 7.896 -4.74 Z M 7.896 -1.476 L 7.896 -1.476 L 0.744 -1.476 L 0.744 -2.28 L 7.896 -2.28 Z " /></symbol><use href="#STIXTwoMathRegular_1202" x="137.07" y="192.02" width="9.212" height="59.752" fill="black" /><use href="#STIXTwoMathRegular_2" x="147.15" y="192.02" width="0" height="59.752" fill="black" /><symbol id="STIXTwoMathRegular_3680" viewBox="0 -31.524 6.324 51.216"><path d="M 2.58 0 L 2.58 0 L 0.012 -7.884 L 1.104 -7.884 L 2.4 -3.636 Q 2.604 -2.94 2.772 -2.334 Q 2.94 -1.728 3.168 -1.032 L 3.228 -1.032 Q 3.444 -1.728 3.618 -2.334 Q 3.792 -2.94 3.996 -3.636 L 5.28 -7.884 L 6.324 -7.884 L 3.768 0 Z " /></symbol><use href="#STIXTwoMathRegular_3680" x="150.44" y="192.02" width="7.378" height="59.752" fill="black" /><symbol id="STIXTwoMathRegular_3687" viewBox="0 -31.524 5.016 51.216"><path d="M 3.144 0.144 L 3.144 0.144 Q 2.412 0.144 1.818 -0.216 Q 1.224 -0.576 0.876 -1.242 Q 0.528 -1.908 0.528 -2.82 Q 0.528 -3.78 0.906 -4.452 Q 1.284 -5.124 1.902 -5.472 Q 2.52 -5.82 3.24 -5.82 Q 3.84 -5.82 4.23 -5.616 Q 4.62 -5.412 4.908 -5.16 L 4.416 -4.524 Q 4.164 -4.752 3.894 -4.884 Q 3.624 -5.016 3.276 -5.016 Q 2.772 -5.016 2.376 -4.74 Q 1.98 -4.464 1.752 -3.978 Q 1.524 -3.492 1.524 -2.832 Q 1.524 -1.86 2.01 -1.26 Q 2.496 -0.66 3.252 -0.66 Q 3.672 -0.66 4.002 -0.828 Q 4.332 -0.996 4.596 -1.224 L 5.016 -0.576 Q 4.632 -0.24 4.164 -0.048 Q 3.696 0.144 3.144 0.144 Z " /></symbol><use href="#STIXTwoMathRegular_3687" x="157.818" y="192.02" width="5.852" height="59.752" fill="black" /><use href="#STIXTwoMathRegular_3687" x="163.992" y="192.02" width="5.852" height="59.752" fill="black" /></g></g></g><g><g><g><rect x="219.6" y="216.427" width="3.78" height="0.952" fill="black" /><symbol id="STIXTwoMathRegular_3680" viewBox="0 -31.524 6.324 51.216"><path d="M 2.58 0 L 2.58 0 L 0.012 -7.884 L 1.104 -7.884 L 2.4 -3.636 Q 2.604 -2.94 2.772 -2.334 Q 2.94 -1.728 3.168 -1.032 L 3.228 -1.032 Q 3.444 -1.728 3.618 -2.334 Q 3.792 -2.94 3.996 -3.636 L 5.28 -7.884 L 6.324 -7.884 L 3.768 0 Z " /></symbol><use href="#STIXTwoMathRegular_3680" x="223.38" y="183.737" width="7.378" height="59.752" fill="black" /><symbol id="STIXTwoMathRegular_3687" viewBox="0 -31.524 5.016 51.216"><path d="M 3.144 0.144 L 3.144 0.144 Q 2.412 0.144 1.818 -0.216 Q 1.224 -0.576 0.876 -1.242 Q 0.528 -1.908 0.528 -2.82 Q 0.528 -3.78 0.906 -4.452 Q 1.284 -5.124 1.902 -5.472 Q 2.52 -5.82 3.24 -5.82 Q 3.84 -5.82 4.23 -5.616 Q 4.62 -5.412 4.908 -5.16 L 4.416 -4.524 Q 4.164 -4.752 3.894 -4.884 Q 3.624 -5.016 3.276 -5.016 Q 2.772 -5.016 2.376 -4.74 Q 1.98 -4.464 1.752 -3.978 Q 1.524 -3.492 1.524 -2.832 Q 1.524 -1.86 2.01 -1.26 Q 2.496 -0.66 3.252 -0.66 Q 3.672 -0.66 4.002 -0.828 Q 4.332 -0.996 4.596 -1.224 L 5.016 -0.576 Q 4.632 -0.24 4.164 -0.048 Q 3.696 0.144 3.144 0.144 Z " /></symbol><use href="#STIXTwoMathRegular_3687" x="230.758" y="183.737" width="5.852" height="59.752" fill="black" /><use href="#STIXTwoMathRegular_3687" x="236.932" y="183.737" width="5.852" height="59.752" fill="black" /></g></g></g><circle cx="71.99999999999999" cy="108.0" r="2.6999999999999997" style="stroke:black;fill:black;stroke-width:2.0;stroke-dasharray:-;" /></svg>