<svg xmlns="http://www.w3.org/2000/svg" xmlns:xlink="http://www.w3.org/1999/xlink" xml:lang="en" height="237.998pt" width="163.40600000000003pt" viewBox="-13.600000000000032 -4.6 163.40600000000003 237.998"><path d="M 0.0,-0.0 L -6.613092715395707e-15,36.0 L 8.999999999999993,39.0 L -9.000000000000007,45.0 L 8.999999999999991,50.99999999999999 L -9.00000000000001,57.0 L 8.999999999999988,63.0 L -9.000000000000012,69.0 L -1.3226185430791413e-14,72.0 L -1.9839278146187122e-14,108.0" style="stroke:black;fill:none;stroke-width:2.0;stroke-dasharray:-;stroke-linecap:round;stroke-linejoin:round;" /><path d="M -1.9839278146187122e-14,108.0 L 35.99999999999998,108.0 L 71.99999999999999,108.0" style="stroke:black;fill:none;stroke-width:2.0;stroke-dasharray:-;stroke-linecap:round;stroke-linejoin:round;" /><path d="M 71.99999999999999,108.0 L 71.99999999999999,122.39999999999999 L 62.999999999999986,122.39999999999999 L 80.99999999999999,122.39999999999999 M 65.69999999999999,126.72 L 78.29999999999998,126.72 M 70.19999999999999,131.04 L 73.79999999999998,131.04" style="stroke:black;fill:none;stroke-width:2.0;stroke-dasharray:-;stroke-linecap:round;stroke-linejoin:round;" /><path d="M -1.9839278146187122e-14,108.0 L -2.6452370861582827e-14,144.0 L 8.999999999999973,147.0 L -9.000000000000028,153.0 L 8.999999999999972,158.99999999999997 L -9.00000000000003,165.0 L 8.999999999999968,171.0 L -9.000000000000032,176.99999999999997 L -3.3065463576978534e-14,180.0 L -3.9678556292374245e-14,216.0" style="stroke:black;fill:none;stroke-width:2.0;stroke-dasharray:-;stroke-linecap:round;stroke-linejoin:round;" /><path d="M -3.9678556292374245e-14,216.0 L 35.99999999999996,216.0 L 71.99999999999996,216.0" style="stroke:black;fill:none;stroke-width:2.0;stroke-dasharray:-;stroke-linecap:round;stroke-linejoin:round;" /><g><g><g><symbol id="STIXTwoMathRegular_3676" viewBox="0 -31.524 6.684 51.216"><path d="M 1.104 0 L 1.104 0 L 1.104 -7.884 L 3.636 -7.884 Q 4.452 -7.884 5.088 -7.668 Q 5.724 -7.452 6.084 -6.972 Q 6.444 -6.492 6.444 -5.676 Q 6.444 -4.728 5.952 -4.176 Q 5.46 -3.624 4.644 -3.432 L 6.684 0 L 5.52 0 L 3.588 -3.324 L 2.136 -3.324 L 2.136 0 Z M 2.136 -4.152 L 2.136 -4.152 L 3.48 -4.152 Q 4.416 -4.152 4.92 -4.524 Q 5.424 -4.896 5.424 -5.664 Q 5.424 -6.432 4.92 -6.744 Q 4.416 -7.056 3.48 -7.056 L 2.136 -7.056 Z " /></symbol><use href="#STIXTwoMathRegular_3676" x="-3.437" y="84.02" width="7.798" height="59.752" fill="black" /></g></g></g><g><g><g><symbol id="STIXTwoMathRegular_3665" viewBox="0 -31.524 6.756 51.216"><path d="M 4.284 0.144 L 4.284 0.144 Q 3.216 0.144 2.394 -0.342 Q 1.572 -0.828 1.11 -1.74 Q 0.648 -2.652 0.648 -3.912 Q 0.648 -5.208 1.128 -6.126 Q 1.608 -7.044 2.43 -7.53 Q 3.252 -8.016 4.296 -8.016 Q 5.184 -8.016 5.742 -7.716 Q 6.3 -7.416 6.66 -7.044 L 6.096 -6.384 Q 5.796 -6.696 5.388 -6.912 Q 4.98 -7.128 4.344 -7.128 Q 3.144 -7.128 2.424 -6.276 Q 1.704 -5.424 1.704 -3.924 Q 1.704 -2.484 2.394 -1.62 Q 3.084 -0.756 4.344 -0.756 Q 5.328 -0.756 5.82 -1.212 L 5.82 -3.24 L 4.128 -3.24 L 4.128 -4.092 L 6.756 -4.092 L 6.756 -0.768 Q 6.372 -0.372 5.736 -0.114 Q 5.1 0.144 4.284 0.144 Z " /></symbol><use href="#STIXTwoMathRegular_3665" x="84.6" y="87.334" width="7.882" height="59.752" fill="black" /><symbol id="STIXTwoMathRegular_3672" viewBox="0 -31.524 6.84 51.216"><path d="M 1.104 0 L 1.104 0 L 1.104 -7.884 L 2.172 -7.884 L 5.076 -2.952 L 5.94 -1.32 L 6 -1.32 Q 5.964 -1.92 5.916 -2.568 Q 5.868 -3.216 5.868 -3.84 L 5.868 -7.884 L 6.84 -7.884 L 6.84 0 L 5.784 0 L 2.868 -4.932 L 2.004 -6.564 L 1.956 -6.564 Q 1.992 -5.964 2.04 -5.334 Q 2.088 -4.704 2.088 -4.092 L 2.088 0 Z " /></symbol><use href="#STIXTwoMathRegular_3672" x="93.434" y="87.334" width="7.98" height="59.752" fill="black" /><symbol id="STIXTwoMathRegular_3662" viewBox="0 -31.524 6.924 51.216"><path d="M 1.104 0 L 1.104 0 L 1.104 -7.884 L 3.12 -7.884 Q 4.98 -7.884 5.952 -6.87 Q 6.924 -5.856 6.924 -3.972 Q 6.924 -2.088 5.958 -1.044 Q 4.992 0 3.168 0 Z M 2.136 -0.84 L 2.136 -0.84 L 3.048 -0.84 Q 4.464 -0.84 5.166 -1.662 Q 5.868 -2.484 5.868 -3.972 Q 5.868 -5.46 5.166 -6.252 Q 4.464 -7.044 3.048 -7.044 L 2.136 -7.044 Z " /></symbol><use href="#STIXTwoMathRegular_3662" x="102.702" y="87.334" width="8.078" height="59.752" fill="black" /><symbol id="STIXTwoMathRegular_2" viewBox="0 -31.524 0 51.216" /><use href="#STIXTwoMathRegular_2" x="111.522" y="87.334" width="0" height="59.752" fill="black" /><symbol id="STIXTwoMathRegular_1202" viewBox="0 -31.524 7.896 51.216"><path d="M 7.896 -3.924 L 7.896 -3.924 L 0.744 -3.924 L 0.744 -4.74 L 7.896 -4.74 Z M 7.896 -1.476 L 7.896 -1.476 L 0.744 -1.476 L 0.744 -2.28 L 7.896 -2.28 Z " /></symbol><use href="#STIXTwoMathRegular_1202" x="114.812" y="87.334" width="9.212" height="59.752" fill="black" /><use href="#STIXTwoMathRegular_2" x="124.892" y="87.334" width="0" height="59.752" fill="black" /><symbol id="STIXTwoMathRegular_4243" viewBox="0 -31.524 5.556 51.216"><path d="M 3.048 0.144 L 3.048 0.144 Q 1.884 0.144 1.218 -0.882 Q 0.552 -1.908 0.552 -3.804 Q 0.552 -5.712 1.218 -6.702 Q 1.884 -7.692 3.048 -7.692 Q 4.224 -7.692 4.89 -6.696 Q 5.556 -5.7 5.556 -3.804 Q 5.556 -1.908 4.89 -0.882 Q 4.224 0.144 3.048 0.144 Z M 3.048 -0.672 L 3.048 -0.672 Q 3.732 -0.672 4.152 -1.41 Q 4.572 -2.148 4.572 -3.804 Q 4.572 -5.46 4.152 -6.174 Q 3.732 -6.888 3.048 -6.888 Q 2.376 -6.888 1.95 -6.174 Q 1.524 -5.46 1.524 -3.804 Q 1.524 -2.148 1.95 -1.41 Q 2.376 -0.672 3.048 -0.672 Z " /></symbol><use href="#STIXTwoMathRegular_4243" x="128.182" y="87.334" width="6.482" height="59.752" fill="black" /><use href="#STIXTwoMathRegular_2" x="135.294" y="87.334" width="0" height="59.752" fill="black" /><symbol id="STIXTwoMathRegular_3680" viewBox="0 -31.524 6.324 51.216"><path d="M 2.58 0 L 2.58 0 L 0.012 -7.884 L 1.104 -7.884 L 2.4 -3.636 Q 2.604 -2.94 2.772 -2.334 Q 2.94 -1.728 3.168 -1.032 L 3.228 -1.032 Q 3.444 -1.728 3.618 -2.334 Q 3.792 -2.94 3.996 -3.636 L 5.28 -7.884 L 6.324 -7.884 L 3.768 0 Z " /></symbol><use href="#STIXTwoMathRegular_3680" x="138.584" y="87.334" width="7.378" height="59.752" fill="black" /></g></g></g><g><g><g><symbol id="STIXTwoMathRegular_3676" viewBox="0 -31.524 6.684 51.216"><path d="M 1.104 0 L 1.104 0 L 1.104 -7.884 L 3.636 -7.884 Q 4.452 -7.884 5.088 -7.668 Q 5.724 -7.452 6.084 -6.972 Q 6.444 -6.492 6.444 -5.676 Q 6.444 -4.728 5.952 -4.176 Q 5.46 -3.624 4.644 -3.432 L 6.684 0 L 5.52 0 L 3.588 -3.324 L 2.136 -3.324 L 2.136 0 Z M 2.136 -4.152 L 2.136 -4.152 L 3.48 -4.152 Q 4.416 -4.152 4.92 -4.524 Q 5.424 -4.896 5.424 -5.664 Q 5.424 -6.432 4.92 -6.744 Q 4.416 -7.056 3.48 -7.056 L 2.136 -7.056 Z " /></symbol><use href="#STIXTwoMathRegular_3676" x="-3.437" y="192.02" width="7.798" height="59.752" fill="black" /></g></g></g><g><g><g><rect x="75.6" y="216.427" width="3.78" height="0.952" fill="black" /><symbol id="STIXTwoMathRegular_3680" viewBox="0 -31.524 6.324 51.216"><path d="M 2.58 0 L 2.58 0 L 0.012 -7.884 L 1.104 -7.884 L 2.4 -3.636 Q 2.604 -2.94 2.772 -2.334 Q 2.94 -1.728 3.168 -1.032 L 3.228 -1.032 Q 3.444 -1.728 3.618 -2.334 Q 3.792 -2.94 3.996 -3.636 L 5.28 -7.884 L 6.324 -7.884 L 3.768 0 Z " /></symbol><use href="#STIXTwoMathRegular_3680" x="79.38" y="183.737" width="7.378" height="59.752" fill="black" /><symbol id="STIXTwoMathRegular_3687" viewBox="0 -31.524 5.016 51.216"><path d="M 3.144 0.144 L 3.144 0.144 Q 2.412 0.144 1.818 -0.216 Q 1.224 -0.576 0.876 -1.242 Q 0.528 -1.908 0.528 -2.82 Q 0.528 -3.78 0.906 -4.452 Q 1.284 -5.124 1.902 -5.472 Q 2.52 -5.82 3.24 -5.82 Q 3.84 -5.82 4.23 -5.616 Q 4.62 -5.412 4.908 -5.16 L 4.416 -4.524 Q 4.164 -4.752 3.894 -4.884 Q 3.624 -5.016 3.276 -5.016 Q 2.772 -5.016 2.376 -4.74 Q 1.98 -4.464 1.752 -3.978 Q 1.524 -3.492 1.524 -2.832 Q 1.524 -1.86 2.01 -1.26 Q 2.496 -0.66 3.252 -0.66 Q 3.672 -0.66 4.002 -0.828 Q 4.332 -0.996 4.596 -1.224 L 5.016 -0.576 Q 4.632 -0.24 4.164 -0.048 Q 3.696 0.144 3.144 0.144 Z " /></symbol><use href="#STIXTwoMathRegular_3687" x="86.758" y="183.737" width="5.852" height="59.752" fill="black" /><use href="#STIXTwoMathRegular_3687" x="92.932" y="183.737" width="5.852" height="59.752" fill="black" /></g></g></g><circle cx="-1.9839278146187122e-14" cy="108.0" r="2.6999999999999997" style="stroke:black;fill:black;stroke-width:2.0;stroke-dasharray:-;" /></svg>