<svg xmlns="http://www.w3.org/2000/svg" xmlns:xlink="http://www.w3.org/1999/xlink" xml:lang="en" height="146.97799999999998pt" width="235.8004pt" viewBox="-35.6262 -119.338 235.8004 146.97799999999998"><circle cx="2.7554552980815448e-15" cy="-45.0" r="18.0" style="stroke:black;fill:none;stroke-width:2.0;stroke-dasharray:-;" /><path d="M 0.0,-0.0 L 1.6532731788489267e-15,-27.0 L 1.6532731788489267e-15,-27.0 M 3.857637417314163e-15,-63.0 L 3.857637417314163e-15,-63.0 L 5.5109105961630896e-15,-90.0" style="stroke:black;fill:none;stroke-width:2.0;stroke-dasharray:-;stroke-linecap:round;stroke-linejoin:round;" /><path d="M 3.6000000000000023,-36.0 L -3.5999999999999983,-36.0" style="stroke:black;fill:none;stroke-width:2.0;stroke-dasharray:-;stroke-linecap:round;stroke-linejoin:round;" /><path d="M 3.0861099338513298e-15,-50.4 L 3.5269827815443773e-15,-57.6" style="stroke:black;fill:none;stroke-width:2.0;stroke-dasharray:-;stroke-linecap:round;stroke-linejoin:round;" /><path d="M 3.6000000000000036,-54.0 L -3.5999999999999965,-54.0" style="stroke:black;fill:none;stroke-width:2.0;stroke-dasharray:-;stroke-linecap:round;stroke-linejoin:round;" /><path d="M 5.5109105961630896e-15,-90.0 L 27.000000000000004,-90.0 L 27.000000000000004,-99.0 L 63.00000000000001,-99.0 L 63.00000000000001,-81.0 L 27.000000000000004,-81.0 L 27.000000000000004,-90.0 M 63.00000000000001,-90.0 L 90.0,-90.0" style="stroke:black;fill:none;stroke-width:2.0;stroke-dasharray:-;stroke-linecap:round;stroke-linejoin:round;" /><path d="M 90.0,-90.0 L 135.0,-90.0 L 180.0,-90.0" style="stroke:black;fill:none;stroke-width:2.0;stroke-dasharray:-;stroke-linecap:round;stroke-linejoin:round;" /><path d="M 180.0,-90.0 L 135.0,-90.0 L 90.0,-90.00000000000001" style="stroke:black;fill:none;stroke-width:2.0;stroke-dasharray:-;stroke-linecap:round;stroke-linejoin:round;" /><path d="M 90.0,-90.00000000000001 L 90.0,-63.000000000000014 L 99.0,-63.000000000000014 L 98.99999999999999,-27.000000000000014 L 80.99999999999999,-27.000000000000014 L 81.0,-63.000000000000014 L 90.0,-63.000000000000014 M 89.99999999999999,-27.000000000000014 L 89.99999999999999,-1.5987211554602254e-14" style="stroke:black;fill:none;stroke-width:2.0;stroke-dasharray:-;stroke-linecap:round;stroke-linejoin:round;" /><path d="M 89.99999999999999,-1.5987211554602254e-14 L 89.99999999999999,14.399999999999984 L 80.99999999999999,14.399999999999984 L 98.99999999999999,14.399999999999984 M 83.69999999999999,18.719999999999985 L 96.29999999999998,18.719999999999985 M 88.19999999999999,23.039999999999985 L 91.79999999999998,23.039999999999985" style="stroke:black;fill:none;stroke-width:2.0;stroke-dasharray:-;stroke-linecap:round;stroke-linejoin:round;" /><path d="M 89.99999999999999,-1.5987211554602254e-14 L 44.999999999999986,-2.1498122150765342e-14 L -1.5987211554602254e-14,-2.700903274692843e-14" style="stroke:black;fill:none;stroke-width:2.0;stroke-dasharray:-;stroke-linecap:round;stroke-linejoin:round;" /><g><g><g><symbol id="STIXTwoMathRegular_3321" viewBox="0 -31.524 8.868 51.216"><path d="M 3.324 -1.5 L 3.324 -1.5 L 6.6 -6.42 Q 6.768 -6.66 6.87 -6.864 Q 6.972 -7.068 6.972 -7.212 Q 6.972 -7.392 6.816 -7.458 Q 6.66 -7.524 6.252 -7.524 L 6.276 -7.884 L 8.868 -7.884 L 8.844 -7.524 Q 8.52 -7.524 8.292 -7.428 Q 8.064 -7.332 7.83 -7.062 Q 7.596 -6.792 7.224 -6.24 L 2.82 0.06 L 2.424 0.06 L 1.752 -6.432 Q 1.68 -7.032 1.488 -7.278 Q 1.296 -7.524 0.816 -7.524 L 0.84 -7.884 L 3.78 -7.884 L 3.744 -7.524 Q 3.288 -7.524 3.024 -7.344 Q 2.76 -7.164 2.784 -6.756 Q 2.784 -6.696 2.802 -6.54 Q 2.82 -6.384 2.82 -6.324 L 3.18 -2.904 L 3.264 -1.5 Z " /></symbol><use href="#STIXTwoMathRegular_3321" x="-32.537" y="-78.693" width="10.346" height="59.752" fill="black" /><symbol id="STIXTwoMathRegular_4430" viewBox="0 -31.524 3.588 51.216"><path d="M 3.06 -6.18 L 3.06 -6.18 L 2.16 -1.692 Q 2.16 -1.692 2.136 -1.572 Q 2.112 -1.452 2.088 -1.296 Q 2.064 -1.14 2.064 -1.044 Q 2.064 -0.768 2.328 -0.768 Q 2.556 -0.768 2.742 -0.894 Q 2.928 -1.02 3.066 -1.182 Q 3.204 -1.344 3.288 -1.44 L 3.588 -1.2 Q 3.36 -0.888 3.114 -0.588 Q 2.868 -0.288 2.538 -0.09 Q 2.208 0.108 1.74 0.108 Q 1.332 0.108 1.098 -0.054 Q 0.864 -0.216 0.864 -0.552 Q 0.864 -0.708 0.906 -0.96 Q 0.948 -1.212 1.068 -1.764 L 1.716 -4.848 Q 1.716 -4.848 1.74 -4.962 Q 1.764 -5.076 1.764 -5.256 Q 1.764 -5.4 1.674 -5.538 Q 1.584 -5.676 1.308 -5.676 Q 1.164 -5.676 1.026 -5.664 Q 0.888 -5.652 0.888 -5.652 L 0.888 -6.048 L 2.628 -6.18 Z M 3.336 -7.872 L 3.336 -7.872 Q 3.336 -7.524 3.126 -7.326 Q 2.916 -7.128 2.58 -7.128 Q 2.28 -7.128 2.07 -7.32 Q 1.86 -7.512 1.86 -7.872 Q 1.86 -8.232 2.07 -8.43 Q 2.28 -8.628 2.58 -8.628 Q 2.916 -8.628 3.126 -8.424 Q 3.336 -8.22 3.336 -7.872 Z " /></symbol><use href="#STIXTwoMathRegular_4430" x="-23.843" y="-64.72" width="2.93" height="41.826" fill="black" /></g></g></g><g><g><g><symbol id="STIXTwoMathRegular_3317" viewBox="-0.108 -31.524 7.296 51.216"><path d="M 6.948 -6.228 L 6.948 -6.228 Q 6.948 -5.592 6.708 -5.16 Q 6.468 -4.728 6.084 -4.452 Q 5.7 -4.176 5.262 -4.026 Q 4.824 -3.876 4.428 -3.804 L 4.428 -3.744 Q 4.644 -3.6 4.836 -3.306 Q 5.028 -3.012 5.31 -2.46 Q 5.592 -1.908 6.084 -0.972 Q 6.288 -0.612 6.534 -0.486 Q 6.78 -0.36 7.188 -0.36 L 7.116 0 L 5.292 0 Q 4.956 -0.744 4.728 -1.242 Q 4.5 -1.74 4.332 -2.076 Q 4.164 -2.412 4.038 -2.676 Q 3.912 -2.94 3.768 -3.216 Q 3.636 -3.468 3.48 -3.546 Q 3.324 -3.624 3 -3.624 L 2.748 -3.624 L 2.304 -1.488 Q 2.208 -0.996 2.238 -0.75 Q 2.268 -0.504 2.508 -0.432 Q 2.748 -0.36 3.264 -0.36 L 3.204 0 L -0.108 0 L -0.036 -0.36 Q 0.408 -0.36 0.648 -0.432 Q 0.888 -0.504 1.014 -0.744 Q 1.14 -0.984 1.236 -1.488 L 2.292 -6.636 Q 2.364 -6.972 2.328 -7.164 Q 2.292 -7.356 2.082 -7.44 Q 1.872 -7.524 1.392 -7.524 L 1.464 -7.884 L 4.284 -7.884 Q 5.544 -7.884 6.246 -7.494 Q 6.948 -7.104 6.948 -6.228 Z M 3.504 -7.38 L 3.504 -7.38 L 2.832 -4.068 L 3.204 -4.056 Q 3.924 -4.08 4.506 -4.29 Q 5.088 -4.5 5.424 -4.956 Q 5.76 -5.412 5.76 -6.18 Q 5.76 -6.504 5.622 -6.786 Q 5.484 -7.068 5.148 -7.242 Q 4.812 -7.416 4.212 -7.416 Q 3.984 -7.416 3.846 -7.41 Q 3.708 -7.404 3.504 -7.38 Z " /></symbol><use href="#STIXTwoMathRegular_3317" x="37.865" y="-142.318" width="8.512" height="59.752" fill="black" /><symbol id="STIXTwoMathRegular_4274" viewBox="0 -31.524 5.184 51.216"><path d="M 5.184 0 L 5.184 0 L 1.116 0 L 1.116 -0.432 Q 1.98 -0.432 2.262 -0.606 Q 2.544 -0.78 2.544 -1.236 L 2.544 -6.468 Q 2.544 -6.792 2.448 -6.936 Q 2.352 -7.08 2.1 -7.08 Q 1.908 -7.08 1.578 -7.026 Q 1.248 -6.972 1.008 -6.912 L 1.008 -7.392 L 3.228 -8.004 L 3.744 -8.004 L 3.744 -1.236 Q 3.744 -0.78 4.05 -0.606 Q 4.356 -0.432 5.184 -0.432 Z " /></symbol><use href="#STIXTwoMathRegular_4274" x="47.021" y="-128.345" width="4.234" height="41.826" fill="black" /></g></g></g><g><g><g><symbol id="STIXTwoMathRegular_3321" viewBox="0 -31.524 8.868 51.216"><path d="M 3.324 -1.5 L 3.324 -1.5 L 6.6 -6.42 Q 6.768 -6.66 6.87 -6.864 Q 6.972 -7.068 6.972 -7.212 Q 6.972 -7.392 6.816 -7.458 Q 6.66 -7.524 6.252 -7.524 L 6.276 -7.884 L 8.868 -7.884 L 8.844 -7.524 Q 8.52 -7.524 8.292 -7.428 Q 8.064 -7.332 7.83 -7.062 Q 7.596 -6.792 7.224 -6.24 L 2.82 0.06 L 2.424 0.06 L 1.752 -6.432 Q 1.68 -7.032 1.488 -7.278 Q 1.296 -7.524 0.816 -7.524 L 0.84 -7.884 L 3.78 -7.884 L 3.744 -7.524 Q 3.288 -7.524 3.024 -7.344 Q 2.76 -7.164 2.784 -6.756 Q 2.784 -6.696 2.802 -6.54 Q 2.82 -6.384 2.82 -6.324 L 3.18 -2.904 L 3.264 -1.5 Z " /></symbol><use href="#STIXTwoMathRegular_3321" x="183.6" y="-123.708" width="10.346" height="59.752" fill="black" /><symbol id="STIXTwoMathRegular_4438" viewBox="0 -31.524 6.3 51.216"><path d="M 6.3 -3.768 L 6.3 -3.768 Q 6.3 -2.676 5.85 -1.788 Q 5.4 -0.9 4.596 -0.378 Q 3.792 0.144 2.724 0.144 Q 1.908 0.144 1.404 -0.204 Q 0.9 -0.552 0.666 -1.104 Q 0.432 -1.656 0.432 -2.256 Q 0.432 -3.024 0.684 -3.732 Q 0.936 -4.44 1.404 -4.998 Q 1.872 -5.556 2.52 -5.88 Q 3.168 -6.204 3.96 -6.204 Q 4.56 -6.204 5.094 -5.922 Q 5.628 -5.64 5.964 -5.094 Q 6.3 -4.548 6.3 -3.768 Z M 5.04 -3.84 L 5.04 -3.84 Q 5.04 -4.356 4.92 -4.782 Q 4.8 -5.208 4.542 -5.466 Q 4.284 -5.724 3.852 -5.724 Q 3.264 -5.724 2.772 -5.304 Q 2.28 -4.884 1.986 -4.098 Q 1.692 -3.312 1.692 -2.184 Q 1.692 -1.716 1.788 -1.296 Q 1.884 -0.876 2.136 -0.618 Q 2.388 -0.36 2.856 -0.36 Q 3.852 -0.36 4.446 -1.266 Q 5.04 -2.172 5.04 -3.84 Z " /></symbol><use href="#STIXTwoMathRegular_4438" x="190.838" y="-109.734" width="5.145" height="41.826" fill="black" /></g></g></g><g><g><g><symbol id="STIXTwoMathRegular_3317" viewBox="-0.108 -31.524 7.296 51.216"><path d="M 6.948 -6.228 L 6.948 -6.228 Q 6.948 -5.592 6.708 -5.16 Q 6.468 -4.728 6.084 -4.452 Q 5.7 -4.176 5.262 -4.026 Q 4.824 -3.876 4.428 -3.804 L 4.428 -3.744 Q 4.644 -3.6 4.836 -3.306 Q 5.028 -3.012 5.31 -2.46 Q 5.592 -1.908 6.084 -0.972 Q 6.288 -0.612 6.534 -0.486 Q 6.78 -0.36 7.188 -0.36 L 7.116 0 L 5.292 0 Q 4.956 -0.744 4.728 -1.242 Q 4.5 -1.74 4.332 -2.076 Q 4.164 -2.412 4.038 -2.676 Q 3.912 -2.94 3.768 -3.216 Q 3.636 -3.468 3.48 -3.546 Q 3.324 -3.624 3 -3.624 L 2.748 -3.624 L 2.304 -1.488 Q 2.208 -0.996 2.238 -0.75 Q 2.268 -0.504 2.508 -0.432 Q 2.748 -0.36 3.264 -0.36 L 3.204 0 L -0.108 0 L -0.036 -0.36 Q 0.408 -0.36 0.648 -0.432 Q 0.888 -0.504 1.014 -0.744 Q 1.14 -0.984 1.236 -1.488 L 2.292 -6.636 Q 2.364 -6.972 2.328 -7.164 Q 2.292 -7.356 2.082 -7.44 Q 1.872 -7.524 1.392 -7.524 L 1.464 -7.884 L 4.284 -7.884 Q 5.544 -7.884 6.246 -7.494 Q 6.948 -7.104 6.948 -6.228 Z M 3.504 -7.38 L 3.504 -7.38 L 2.832 -4.068 L 3.204 -4.056 Q 3.924 -4.08 4.506 -4.29 Q 5.088 -4.5 5.424 -4.956 Q 5.76 -5.412 5.76 -6.18 Q 5.76 -6.504 5.622 -6.786 Q 5.484 -7.068 5.148 -7.242 Q 4.812 -7.416 4.212 -7.416 Q 3.984 -7.416 3.846 -7.41 Q 3.708 -7.404 3.504 -7.38 Z " /></symbol><use href="#STIXTwoMathRegular_3317" x="62.983" y="-78.649" width="8.512" height="59.752" fill="black" /><symbol id="STIXTwoMathRegular_4275" viewBox="0 -31.524 5.868 51.216"><path d="M 5.868 -2.088 L 5.868 -2.088 L 5.46 0 L 0.54 0 L 0.54 -0.588 L 2.244 -2.316 Q 2.916 -2.988 3.354 -3.504 Q 3.792 -4.02 4.008 -4.542 Q 4.224 -5.064 4.224 -5.736 Q 4.224 -6.372 3.834 -6.786 Q 3.444 -7.2 2.736 -7.2 Q 2.088 -7.2 1.65 -6.942 Q 1.212 -6.684 0.876 -6.096 L 0.552 -6.252 Q 0.852 -7.092 1.482 -7.572 Q 2.112 -8.052 3.036 -8.052 Q 3.756 -8.052 4.308 -7.794 Q 4.86 -7.536 5.172 -7.056 Q 5.484 -6.576 5.484 -5.892 Q 5.484 -5.304 5.22 -4.788 Q 4.956 -4.272 4.47 -3.732 Q 3.984 -3.192 3.312 -2.532 L 1.812 -1.08 L 1.812 -0.996 L 2.748 -1.044 L 4.308 -1.044 Q 4.656 -1.044 4.842 -1.14 Q 5.028 -1.236 5.16 -1.47 Q 5.292 -1.704 5.448 -2.088 Z " /></symbol><use href="#STIXTwoMathRegular_4275" x="72.139" y="-64.676" width="4.792" height="41.826" fill="black" /></g></g></g><circle cx="90.0" cy="-90.0" r="2.6999999999999997" style="stroke:black;fill:black;stroke-width:2.0;stroke-dasharray:-;" /></svg>