<svg xmlns="http://www.w3.org/2000/svg" xmlns:xlink="http://www.w3.org/1999/xlink" xml:lang="en" height="190.028pt" width="197.31199999999995pt" viewBox="-32.51199999999999 -95.014 197.31199999999995 190.028" style="background-color:white;"><circle cx="2.645237086158283e-15" cy="-43.199999999999996" r="18.0" style="stroke:black;fill:none;stroke-width:2.0;stroke-dasharray:-;" /><path d="M 0.0,-0.0 L 1.5430549669256649e-15,-25.2 L 1.5430549669256649e-15,-25.2 M 3.747419205390901e-15,-61.199999999999996 L 3.747419205390901e-15,-61.199999999999996 L 5.290474172316566e-15,-86.39999999999999" style="stroke:black;fill:none;stroke-width:2.0;stroke-dasharray:-;stroke-linecap:round;stroke-linejoin:round;" /><path d="M 3.6000000000000023,-34.199999999999996 L -3.5999999999999983,-34.199999999999996" style="stroke:black;fill:none;stroke-width:2.0;stroke-dasharray:-;stroke-linecap:round;stroke-linejoin:round;" /><path d="M 2.9758917219280684e-15,-48.6 L 3.416764569621115e-15,-55.8" style="stroke:black;fill:none;stroke-width:2.0;stroke-dasharray:-;stroke-linecap:round;stroke-linejoin:round;" /><path d="M 3.600000000000003,-52.199999999999996 L -3.599999999999997,-52.199999999999996" style="stroke:black;fill:none;stroke-width:2.0;stroke-dasharray:-;stroke-linecap:round;stroke-linejoin:round;" /><path d="M 5.290474172316566e-15,-86.39999999999999 L 54.00000000000001,-86.39999999999999 L 108.0,-86.39999999999999" style="stroke:black;fill:none;stroke-width:2.0;stroke-dasharray:-;stroke-linecap:round;stroke-linejoin:round;" /><path d="M 108.0,-86.39999999999999 L 108.0,-61.199999999999996 L 117.0,-61.199999999999996 L 116.99999999999999,-25.2 L 98.99999999999999,-25.2 L 99.0,-61.199999999999996 L 108.0,-61.199999999999996 M 107.99999999999999,-25.2 L 107.99999999999999,-0.0" style="stroke:black;fill:none;stroke-width:2.0;stroke-dasharray:-;stroke-linecap:round;stroke-linejoin:round;" /><path d="M 107.99999999999999,-0.0 L 129.6,-0.0 L 151.2,-0.0" style="stroke:black;fill:none;stroke-width:2.0;stroke-dasharray:-;stroke-linecap:round;stroke-linejoin:round;" /><path d="M 151.2,-0.0 L 151.2,14.4 L 142.2,14.4 L 160.2,14.4 M 144.89999999999998,18.72 L 157.49999999999997,18.72 M 149.39999999999998,23.04 L 152.99999999999997,23.04" style="stroke:black;fill:none;stroke-width:2.0;stroke-dasharray:-;stroke-linecap:round;stroke-linejoin:round;" /><path d="M 107.99999999999999,-0.0 L 107.99999999999999,25.2 L 116.99999999999999,25.2 L 116.99999999999997,61.199999999999996 L 98.99999999999997,61.199999999999996 L 98.99999999999999,25.2 L 107.99999999999999,25.2 M 107.99999999999997,61.199999999999996 L 107.99999999999997,86.39999999999999" style="stroke:black;fill:none;stroke-width:2.0;stroke-dasharray:-;stroke-linecap:round;stroke-linejoin:round;" /><path d="M 107.99999999999997,86.39999999999999 L 53.99999999999997,86.39999999999999 L -3.197442310920451e-14,86.39999999999998" style="stroke:black;fill:none;stroke-width:2.0;stroke-dasharray:-;stroke-linecap:round;stroke-linejoin:round;" /><path d="M -3.197442310920451e-14,86.39999999999998" style="stroke:black;fill:none;stroke-width:2.0;stroke-dasharray:-;stroke-linecap:round;stroke-linejoin:round;" /><path d="M -3.197442310920451e-14,86.39999999999998" style="stroke:black;fill:none;stroke-width:2.0;stroke-dasharray:-;stroke-linecap:round;stroke-linejoin:round;" /><path d="M -3.197442310920451e-14,86.39999999999998" style="stroke:black;fill:none;stroke-width:2.0;stroke-dasharray:-;stroke-linecap:round;stroke-linejoin:round;" /><path d="M -3.197442310920451e-14,86.39999999999998" style="stroke:black;fill:none;stroke-width:2.0;stroke-dasharray:-;stroke-linecap:round;stroke-linejoin:round;" /><path d="M -3.197442310920451e-14,86.39999999999998" style="stroke:black;fill:none;stroke-width:2.0;stroke-dasharray:-;stroke-linecap:round;stroke-linejoin:round;" /><g><g><g><symbol id="STIXTwoMathRegular_3680" viewBox="0 -31.524 6.324 51.216"><path d="M 2.58 0 L 2.58 0 L 0.012 -7.884 L 1.104 -7.884 L 2.4 -3.636 Q 2.604 -2.94 2.772 -2.334 Q 2.94 -1.728 3.168 -1.032 L 3.228 -1.032 Q 3.444 -1.728 3.618 -2.334 Q 3.792 -2.94 3.996 -3.636 L 5.28 -7.884 L 6.324 -7.884 L 3.768 0 Z " /></symbol><use href="#STIXTwoMathRegular_3680" x="-27.912" y="-70.782" width="6.324" height="51.216" fill="black" /></g></g></g><g><g><g><symbol id="STIXTwoMathRegular_3676" viewBox="0 -31.524 6.684 51.216"><path d="M 1.104 0 L 1.104 0 L 1.104 -7.884 L 3.636 -7.884 Q 4.452 -7.884 5.088 -7.668 Q 5.724 -7.452 6.084 -6.972 Q 6.444 -6.492 6.444 -5.676 Q 6.444 -4.728 5.952 -4.176 Q 5.46 -3.624 4.644 -3.432 L 6.684 0 L 5.52 0 L 3.588 -3.324 L 2.136 -3.324 L 2.136 0 Z M 2.136 -4.152 L 2.136 -4.152 L 3.48 -4.152 Q 4.416 -4.152 4.92 -4.524 Q 5.424 -4.896 5.424 -5.664 Q 5.424 -6.432 4.92 -6.744 Q 4.416 -7.056 3.48 -7.056 L 2.136 -7.056 Z " /></symbol><use href="#STIXTwoMathRegular_3676" x="83.412" y="-70.782" width="6.684" height="51.216" fill="black" /><symbol id="STIXTwoMathRegular_4244" viewBox="0 -31.524 3.756 51.216"><path d="M 3.756 0 L 3.756 0 L 2.76 0 L 2.76 -6.348 L 1.212 -6.348 L 1.212 -6.996 Q 1.848 -7.092 2.256 -7.23 Q 2.664 -7.368 3 -7.56 L 3.756 -7.56 Z " /></symbol><use href="#STIXTwoMathRegular_4244" x="90.408" y="-70.782" width="3.756" height="51.216" fill="black" /></g></g></g><g><g><g><symbol id="STIXTwoMathRegular_3676" viewBox="0 -31.524 6.684 51.216"><path d="M 1.104 0 L 1.104 0 L 1.104 -7.884 L 3.636 -7.884 Q 4.452 -7.884 5.088 -7.668 Q 5.724 -7.452 6.084 -6.972 Q 6.444 -6.492 6.444 -5.676 Q 6.444 -4.728 5.952 -4.176 Q 5.46 -3.624 4.644 -3.432 L 6.684 0 L 5.52 0 L 3.588 -3.324 L 2.136 -3.324 L 2.136 0 Z M 2.136 -4.152 L 2.136 -4.152 L 3.48 -4.152 Q 4.416 -4.152 4.92 -4.524 Q 5.424 -4.896 5.424 -5.664 Q 5.424 -6.432 4.92 -6.744 Q 4.416 -7.056 3.48 -7.056 L 2.136 -7.056 Z " /></symbol><use href="#STIXTwoMathRegular_3676" x="83.412" y="15.618" width="6.684" height="51.216" fill="black" /><symbol id="STIXTwoMathRegular_4245" viewBox="0 -31.524 5.544 51.216"><path d="M 0.492 0 L 0.492 0 L 0.492 -0.6 Q 1.668 -1.728 2.484 -2.58 Q 3.3 -3.432 3.732 -4.116 Q 4.164 -4.8 4.164 -5.412 Q 4.164 -6.06 3.798 -6.468 Q 3.432 -6.876 2.688 -6.876 Q 2.196 -6.876 1.782 -6.618 Q 1.368 -6.36 1.02 -5.976 L 0.444 -6.54 Q 0.936 -7.068 1.494 -7.38 Q 2.052 -7.692 2.808 -7.692 Q 3.9 -7.692 4.53 -7.08 Q 5.16 -6.468 5.16 -5.46 Q 5.16 -4.764 4.746 -4.044 Q 4.332 -3.324 3.612 -2.526 Q 2.892 -1.728 1.968 -0.804 Q 2.28 -0.828 2.628 -0.846 Q 2.976 -0.864 3.276 -0.864 L 5.544 -0.864 L 5.544 0 Z " /></symbol><use href="#STIXTwoMathRegular_4245" x="90.408" y="15.618" width="5.544" height="51.216" fill="black" /></g></g></g><circle cx="5.290474172316566e-15" cy="-86.39999999999999" r="2.6999999999999997" style="stroke:black;fill:black;stroke-width:2.0;stroke-dasharray:-;" /><g><g><g><symbol id="STIXTwoMathRegular_3680" viewBox="0 -31.524 6.324 51.216"><path d="M 2.58 0 L 2.58 0 L 0.012 -7.884 L 1.104 -7.884 L 2.4 -3.636 Q 2.604 -2.94 2.772 -2.334 Q 2.94 -1.728 3.168 -1.032 L 3.228 -1.032 Q 3.444 -1.728 3.618 -2.334 Q 3.792 -2.94 3.996 -3.636 L 5.28 -7.884 L 6.324 -7.884 L 3.768 0 Z " /></symbol><use href="#STIXTwoMathRegular_3680" x="-23.196" y="-114.054" width="6.324" height="51.216" fill="black" /><symbol id="STIXTwoMathRegular_3687" viewBox="0 -31.524 5.016 51.216"><path d="M 3.144 0.144 L 3.144 0.144 Q 2.412 0.144 1.818 -0.216 Q 1.224 -0.576 0.876 -1.242 Q 0.528 -1.908 0.528 -2.82 Q 0.528 -3.78 0.906 -4.452 Q 1.284 -5.124 1.902 -5.472 Q 2.52 -5.82 3.24 -5.82 Q 3.84 -5.82 4.23 -5.616 Q 4.62 -5.412 4.908 -5.16 L 4.416 -4.524 Q 4.164 -4.752 3.894 -4.884 Q 3.624 -5.016 3.276 -5.016 Q 2.772 -5.016 2.376 -4.74 Q 1.98 -4.464 1.752 -3.978 Q 1.524 -3.492 1.524 -2.832 Q 1.524 -1.86 2.01 -1.26 Q 2.496 -0.66 3.252 -0.66 Q 3.672 -0.66 4.002 -0.828 Q 4.332 -0.996 4.596 -1.224 L 5.016 -0.576 Q 4.632 -0.24 4.164 -0.048 Q 3.696 0.144 3.144 0.144 Z " /></symbol><use href="#STIXTwoMathRegular_3687" x="-16.872" y="-114.054" width="5.016" height="51.216" fill="black" /><use href="#STIXTwoMathRegular_3687" x="-11.58" y="-114.054" width="5.016" height="51.216" fill="black" /></g></g></g><circle cx="107.99999999999999" cy="-0.0" r="2.6999999999999997" style="stroke:black;fill:black;stroke-width:2.0;stroke-dasharray:-;" /><circle cx="107.99999999999997" cy="86.39999999999999" r="2.6999999999999997" style="stroke:black;fill:black;stroke-width:2.0;stroke-dasharray:-;" /><g><g><g><symbol id="STIXTwoMathRegular_3680" viewBox="0 -31.524 6.324 51.216"><path d="M 2.58 0 L 2.58 0 L 0.012 -7.884 L 1.104 -7.884 L 2.4 -3.636 Q 2.604 -2.94 2.772 -2.334 Q 2.94 -1.728 3.168 -1.032 L 3.228 -1.032 Q 3.444 -1.728 3.618 -2.334 Q 3.792 -2.94 3.996 -3.636 L 5.28 -7.884 L 6.324 -7.884 L 3.768 0 Z " /></symbol><use href="#STIXTwoMathRegular_3680" x="114.3" y="58.746" width="6.324" height="51.216" fill="black" /><symbol id="STIXTwoMathRegular_3689" viewBox="0 -31.524 5.328 51.216"><path d="M 3.252 0.144 L 3.252 0.144 Q 2.496 0.144 1.878 -0.21 Q 1.26 -0.564 0.894 -1.23 Q 0.528 -1.896 0.528 -2.82 Q 0.528 -3.756 0.888 -4.428 Q 1.248 -5.1 1.842 -5.46 Q 2.436 -5.82 3.132 -5.82 Q 4.14 -5.82 4.734 -5.1 Q 5.328 -4.38 5.328 -3.156 Q 5.328 -3 5.316 -2.862 Q 5.304 -2.724 5.28 -2.616 L 1.476 -2.616 Q 1.536 -1.704 2.04 -1.164 Q 2.544 -0.624 3.36 -0.624 Q 3.756 -0.624 4.104 -0.75 Q 4.452 -0.876 4.764 -1.08 L 5.1 -0.456 Q 4.728 -0.204 4.272 -0.03 Q 3.816 0.144 3.252 0.144 Z M 1.476 -3.3 L 1.476 -3.3 L 4.488 -3.3 Q 4.488 -4.152 4.122 -4.602 Q 3.756 -5.052 3.12 -5.052 Q 2.496 -5.052 2.034 -4.608 Q 1.572 -4.164 1.476 -3.3 Z " /></symbol><use href="#STIXTwoMathRegular_3689" x="120.624" y="58.746" width="5.328" height="51.216" fill="black" /><use href="#STIXTwoMathRegular_3689" x="126.384" y="58.746" width="5.328" height="51.216" fill="black" /></g></g></g></svg>